solid OpenSCAD_Model
  facet normal 0.891011 0.453982 0
    outer loop
      vertex 7.43237 -34.4084 1.875
      vertex 6.36708 -32.3176 -0.375
      vertex 6.36708 -32.3176 1.875
    endloop
  endfacet
  facet normal 0.891011 0.453982 0
    outer loop
      vertex 6.36708 -32.3176 -0.375
      vertex 7.43237 -34.4084 1.875
      vertex 7.43237 -34.4084 -0.375
    endloop
  endfacet
  facet normal 0 1 -0
    outer loop
      vertex 73.5 -37.5 -0.375
      vertex 13.5 -37.5 3.375
      vertex 73.5 -37.5 3.375
    endloop
  endfacet
  facet normal 0 1 0
    outer loop
      vertex 13.5 -37.5 3.375
      vertex 73.5 -37.5 -0.375
      vertex 13.5 -37.5 -0.375
    endloop
  endfacet
  facet normal 0.987688 0.156438 0
    outer loop
      vertex 6.36708 -32.3176 1.875
      vertex 6 -30 -0.375
      vertex 6 -30 1.875
    endloop
  endfacet
  facet normal 0.987688 0.156438 0
    outer loop
      vertex 6 -30 -0.375
      vertex 6.36708 -32.3176 1.875
      vertex 6.36708 -32.3176 -0.375
    endloop
  endfacet
  facet normal 0.156446 -0.987686 0
    outer loop
      vertex 11.1824 37.1329 -0.375
      vertex 13.5 37.5 3.375
      vertex 11.1824 37.1329 3.375
    endloop
  endfacet
  facet normal 0.156446 -0.987686 0
    outer loop
      vertex 13.5 37.5 3.375
      vertex 11.1824 37.1329 -0.375
      vertex 13.5 37.5 -0.375
    endloop
  endfacet
  facet normal -1 0 0
    outer loop
      vertex 81 -30 -0.375
      vertex 81 30 3.375
      vertex 81 30 -0.375
    endloop
  endfacet
  facet normal -1 -0 0
    outer loop
      vertex 81 30 3.375
      vertex 81 -30 -0.375
      vertex 81 -30 3.375
    endloop
  endfacet
  facet normal -0.453985 -0.891009 0
    outer loop
      vertex 75.8176 37.1329 -0.375
      vertex 77.9084 36.0676 3.375
      vertex 75.8176 37.1329 3.375
    endloop
  endfacet
  facet normal -0.453985 -0.891009 -0
    outer loop
      vertex 77.9084 36.0676 3.375
      vertex 75.8176 37.1329 -0.375
      vertex 77.9084 36.0676 -0.375
    endloop
  endfacet
  facet normal 0.707101 -0.707113 0
    outer loop
      vertex 7.43237 34.4084 1.875
      vertex 7.43237 34.4084 -0.375
      vertex 8.02398 35 1.875
    endloop
  endfacet
  facet normal 0.707097 -0.707117 0
    outer loop
      vertex 8.02398 35 1.875
      vertex 9.09161 36.0676 3.375
      vertex 8.02398 35 3.375
    endloop
  endfacet
  facet normal 0.707098 -0.707115 1.33949e-06
    outer loop
      vertex 9.09161 36.0676 -0.375
      vertex 8.02398 35 1.875
      vertex 7.43237 34.4084 -0.375
    endloop
  endfacet
  facet normal 0.707097 -0.707117 0
    outer loop
      vertex 8.02398 35 1.875
      vertex 9.09161 36.0676 -0.375
      vertex 9.09161 36.0676 3.375
    endloop
  endfacet
  facet normal 0.707097 0.707117 0
    outer loop
      vertex 9.09161 -36.0676 3.375
      vertex 8.02398 -35 1.875
      vertex 8.02398 -35 3.375
    endloop
  endfacet
  facet normal 0.707097 0.707117 -0
    outer loop
      vertex 9.09161 -36.0676 -0.375
      vertex 8.02398 -35 1.875
      vertex 9.09161 -36.0676 3.375
    endloop
  endfacet
  facet normal 0.707098 0.707115 1.33949e-06
    outer loop
      vertex 7.43237 -34.4084 -0.375
      vertex 8.02398 -35 1.875
      vertex 9.09161 -36.0676 -0.375
    endloop
  endfacet
  facet normal 0.707101 0.707113 0
    outer loop
      vertex 8.02398 -35 1.875
      vertex 7.43237 -34.4084 -0.375
      vertex 7.43237 -34.4084 1.875
    endloop
  endfacet
  facet normal 0.987688 -0.156438 0
    outer loop
      vertex 6 30 1.875
      vertex 6.36708 32.3176 -0.375
      vertex 6.36708 32.3176 1.875
    endloop
  endfacet
  facet normal 0.987688 -0.156438 0
    outer loop
      vertex 6.36708 32.3176 -0.375
      vertex 6 30 1.875
      vertex 6 30 -0.375
    endloop
  endfacet
  facet normal 0.453987 0.891008 -0
    outer loop
      vertex 11.1824 -37.1329 -0.375
      vertex 9.09161 -36.0676 3.375
      vertex 11.1824 -37.1329 3.375
    endloop
  endfacet
  facet normal 0.453987 0.891008 0
    outer loop
      vertex 9.09161 -36.0676 3.375
      vertex 11.1824 -37.1329 -0.375
      vertex 9.09161 -36.0676 -0.375
    endloop
  endfacet
  facet normal 1 -0 0
    outer loop
      vertex 6 -30 1.875
      vertex 6 30 -0.375
      vertex 6 30 1.875
    endloop
  endfacet
  facet normal 1 0 0
    outer loop
      vertex 6 30 -0.375
      vertex 6 -30 1.875
      vertex 6 -30 -0.375
    endloop
  endfacet
  facet normal 0.156446 0.987686 -0
    outer loop
      vertex 13.5 -37.5 -0.375
      vertex 11.1824 -37.1329 3.375
      vertex 13.5 -37.5 3.375
    endloop
  endfacet
  facet normal 0.156446 0.987686 0
    outer loop
      vertex 11.1824 -37.1329 3.375
      vertex 13.5 -37.5 -0.375
      vertex 11.1824 -37.1329 -0.375
    endloop
  endfacet
  facet normal -0.987686 0.156446 0
    outer loop
      vertex 80.6329 -32.3176 -0.375
      vertex 81 -30 3.375
      vertex 81 -30 -0.375
    endloop
  endfacet
  facet normal -0.987686 0.156446 0
    outer loop
      vertex 81 -30 3.375
      vertex 80.6329 -32.3176 -0.375
      vertex 80.6329 -32.3176 3.375
    endloop
  endfacet
  facet normal 0.453987 -0.891008 0
    outer loop
      vertex 9.09161 36.0676 -0.375
      vertex 11.1824 37.1329 3.375
      vertex 9.09161 36.0676 3.375
    endloop
  endfacet
  facet normal 0.453987 -0.891008 0
    outer loop
      vertex 11.1824 37.1329 3.375
      vertex 9.09161 36.0676 -0.375
      vertex 11.1824 37.1329 -0.375
    endloop
  endfacet
  facet normal 0 -1 0
    outer loop
      vertex 49.5 37.5 -0.375
      vertex 73.5 37.5 3.375
      vertex 49.5 37.5 3.375
    endloop
  endfacet
  facet normal 0 -1 -0
    outer loop
      vertex 73.5 37.5 3.375
      vertex 49.5 37.5 -0.375
      vertex 73.5 37.5 -0.375
    endloop
  endfacet
  facet normal 0 -1 0
    outer loop
      vertex 13.5 37.5 -0.375
      vertex 37.5 37.5 3.375
      vertex 13.5 37.5 3.375
    endloop
  endfacet
  facet normal 0 -1 -0
    outer loop
      vertex 37.5 37.5 3.375
      vertex 13.5 37.5 -0.375
      vertex 37.5 37.5 -0.375
    endloop
  endfacet
  facet normal -0.891009 -0.453985 0
    outer loop
      vertex 80.6329 32.3176 -0.375
      vertex 79.5676 34.4084 3.375
      vertex 79.5676 34.4084 -0.375
    endloop
  endfacet
  facet normal -0.891009 -0.453985 0
    outer loop
      vertex 79.5676 34.4084 3.375
      vertex 80.6329 32.3176 -0.375
      vertex 80.6329 32.3176 3.375
    endloop
  endfacet
  facet normal -0.987686 -0.156446 0
    outer loop
      vertex 81 30 -0.375
      vertex 80.6329 32.3176 3.375
      vertex 80.6329 32.3176 -0.375
    endloop
  endfacet
  facet normal -0.987686 -0.156446 0
    outer loop
      vertex 80.6329 32.3176 3.375
      vertex 81 30 -0.375
      vertex 81 30 3.375
    endloop
  endfacet
  facet normal 0.891011 -0.453982 0
    outer loop
      vertex 6.36708 32.3176 1.875
      vertex 7.43237 34.4084 -0.375
      vertex 7.43237 34.4084 1.875
    endloop
  endfacet
  facet normal 0.891011 -0.453982 0
    outer loop
      vertex 7.43237 34.4084 -0.375
      vertex 6.36708 32.3176 1.875
      vertex 6.36708 32.3176 -0.375
    endloop
  endfacet
  facet normal -0.707107 -0.707107 0
    outer loop
      vertex 77.9084 36.0676 -0.375
      vertex 79.5676 34.4084 3.375
      vertex 77.9084 36.0676 3.375
    endloop
  endfacet
  facet normal -0.707107 -0.707107 -0
    outer loop
      vertex 79.5676 34.4084 3.375
      vertex 77.9084 36.0676 -0.375
      vertex 79.5676 34.4084 -0.375
    endloop
  endfacet
  facet normal -0.891009 0.453985 0
    outer loop
      vertex 79.5676 -34.4084 -0.375
      vertex 80.6329 -32.3176 3.375
      vertex 80.6329 -32.3176 -0.375
    endloop
  endfacet
  facet normal -0.891009 0.453985 0
    outer loop
      vertex 80.6329 -32.3176 3.375
      vertex 79.5676 -34.4084 -0.375
      vertex 79.5676 -34.4084 3.375
    endloop
  endfacet
  facet normal -0.707107 0.707107 0
    outer loop
      vertex 79.5676 -34.4084 -0.375
      vertex 77.9084 -36.0676 3.375
      vertex 79.5676 -34.4084 3.375
    endloop
  endfacet
  facet normal -0.707107 0.707107 0
    outer loop
      vertex 77.9084 -36.0676 3.375
      vertex 79.5676 -34.4084 -0.375
      vertex 77.9084 -36.0676 -0.375
    endloop
  endfacet
  facet normal -0.156446 0.987686 0
    outer loop
      vertex 75.8176 -37.1329 -0.375
      vertex 73.5 -37.5 3.375
      vertex 75.8176 -37.1329 3.375
    endloop
  endfacet
  facet normal -0.156446 0.987686 0
    outer loop
      vertex 73.5 -37.5 3.375
      vertex 75.8176 -37.1329 -0.375
      vertex 73.5 -37.5 -0.375
    endloop
  endfacet
  facet normal -0.453985 0.891009 0
    outer loop
      vertex 77.9084 -36.0676 -0.375
      vertex 75.8176 -37.1329 3.375
      vertex 77.9084 -36.0676 3.375
    endloop
  endfacet
  facet normal -0.453985 0.891009 0
    outer loop
      vertex 75.8176 -37.1329 3.375
      vertex 77.9084 -36.0676 -0.375
      vertex 75.8176 -37.1329 -0.375
    endloop
  endfacet
  facet normal 0 0 1
    outer loop
      vertex 49.5 40 -0.375
      vertex 37.5 40 -0.375
      vertex 49.5 37.5 -0.375
    endloop
  endfacet
  facet normal 0 0 1
    outer loop
      vertex 73.5 37.5 -0.375
      vertex 81 30 -0.375
      vertex 80.6329 32.3176 -0.375
    endloop
  endfacet
  facet normal 0 0 1
    outer loop
      vertex 81 30 -0.375
      vertex 49.5 37.5 -0.375
      vertex 81 -30 -0.375
    endloop
  endfacet
  facet normal 0 0 1
    outer loop
      vertex 73.5 37.5 -0.375
      vertex 80.6329 32.3176 -0.375
      vertex 79.5676 34.4084 -0.375
    endloop
  endfacet
  facet normal 0 -0 1
    outer loop
      vertex 73.5 -37.5 -0.375
      vertex 81 -30 -0.375
      vertex 49.5 37.5 -0.375
    endloop
  endfacet
  facet normal 0 0 1
    outer loop
      vertex 73.5 37.5 -0.375
      vertex 79.5676 34.4084 -0.375
      vertex 77.9084 36.0676 -0.375
    endloop
  endfacet
  facet normal 0 0 1
    outer loop
      vertex 81 30 -0.375
      vertex 73.5 37.5 -0.375
      vertex 49.5 37.5 -0.375
    endloop
  endfacet
  facet normal 0 0 1
    outer loop
      vertex 73.5 37.5 -0.375
      vertex 77.9084 36.0676 -0.375
      vertex 75.8176 37.1329 -0.375
    endloop
  endfacet
  facet normal 0 0 1
    outer loop
      vertex 81 -30 -0.375
      vertex 73.5 -37.5 -0.375
      vertex 80.6329 -32.3176 -0.375
    endloop
  endfacet
  facet normal 0 0 1
    outer loop
      vertex 79.5676 -34.4084 -0.375
      vertex 73.5 -37.5 -0.375
      vertex 77.9084 -36.0676 -0.375
    endloop
  endfacet
  facet normal 0 0 1
    outer loop
      vertex 77.9084 -36.0676 -0.375
      vertex 73.5 -37.5 -0.375
      vertex 75.8176 -37.1329 -0.375
    endloop
  endfacet
  facet normal 0 0 1
    outer loop
      vertex 80.6329 -32.3176 -0.375
      vertex 73.5 -37.5 -0.375
      vertex 79.5676 -34.4084 -0.375
    endloop
  endfacet
  facet normal 0 0 1
    outer loop
      vertex 37.5 37.5 -0.375
      vertex 49.5 37.5 -0.375
      vertex 37.5 40 -0.375
    endloop
  endfacet
  facet normal 0 0 1
    outer loop
      vertex 49.5 37.5 -0.375
      vertex 37.5 37.5 -0.375
      vertex 73.5 -37.5 -0.375
    endloop
  endfacet
  facet normal 0 0 1
    outer loop
      vertex 6 30 -0.375
      vertex 37.5 37.5 -0.375
      vertex 13.5 37.5 -0.375
    endloop
  endfacet
  facet normal 0 0 1
    outer loop
      vertex 37.5 37.5 -0.375
      vertex 13.5 -37.5 -0.375
      vertex 73.5 -37.5 -0.375
    endloop
  endfacet
  facet normal 0 0 1
    outer loop
      vertex 6 30 -0.375
      vertex 13.5 37.5 -0.375
      vertex 11.1824 37.1329 -0.375
    endloop
  endfacet
  facet normal 0 0 1
    outer loop
      vertex 6 -30 -0.375
      vertex 37.5 37.5 -0.375
      vertex 6 30 -0.375
    endloop
  endfacet
  facet normal 0 0 1
    outer loop
      vertex 6 30 -0.375
      vertex 11.1824 37.1329 -0.375
      vertex 9.09161 36.0676 -0.375
    endloop
  endfacet
  facet normal 0 0 1
    outer loop
      vertex 37.5 37.5 -0.375
      vertex 6 -30 -0.375
      vertex 13.5 -37.5 -0.375
    endloop
  endfacet
  facet normal 0 0 1
    outer loop
      vertex 6 30 -0.375
      vertex 9.09161 36.0676 -0.375
      vertex 7.43237 34.4084 -0.375
    endloop
  endfacet
  facet normal 0 0 1
    outer loop
      vertex 13.5 -37.5 -0.375
      vertex 6 -30 -0.375
      vertex 11.1824 -37.1329 -0.375
    endloop
  endfacet
  facet normal 0 0 1
    outer loop
      vertex 6 30 -0.375
      vertex 7.43237 34.4084 -0.375
      vertex 6.36708 32.3176 -0.375
    endloop
  endfacet
  facet normal 0 0 1
    outer loop
      vertex 11.1824 -37.1329 -0.375
      vertex 6 -30 -0.375
      vertex 9.09161 -36.0676 -0.375
    endloop
  endfacet
  facet normal 0 0 1
    outer loop
      vertex 9.09161 -36.0676 -0.375
      vertex 6 -30 -0.375
      vertex 7.43237 -34.4084 -0.375
    endloop
  endfacet
  facet normal 0 0 1
    outer loop
      vertex 7.43237 -34.4084 -0.375
      vertex 6 -30 -0.375
      vertex 6.36708 -32.3176 -0.375
    endloop
  endfacet
  facet normal -0.156446 -0.987686 0
    outer loop
      vertex 73.5 37.5 -0.375
      vertex 75.8176 37.1329 3.375
      vertex 73.5 37.5 3.375
    endloop
  endfacet
  facet normal -0.156446 -0.987686 -0
    outer loop
      vertex 75.8176 37.1329 3.375
      vertex 73.5 37.5 -0.375
      vertex 75.8176 37.1329 -0.375
    endloop
  endfacet
  facet normal 0.891009 0.453985 0
    outer loop
      vertex -79.5676 -34.4084 3.375
      vertex -80.6329 -32.3176 -0.375
      vertex -80.6329 -32.3176 3.375
    endloop
  endfacet
  facet normal 0.891009 0.453985 0
    outer loop
      vertex -80.6329 -32.3176 -0.375
      vertex -79.5676 -34.4084 3.375
      vertex -79.5676 -34.4084 -0.375
    endloop
  endfacet
  facet normal 0 1 -0
    outer loop
      vertex -13.5 -37.5 -0.375
      vertex -73.5 -37.5 3.375
      vertex -13.5 -37.5 3.375
    endloop
  endfacet
  facet normal 0 1 0
    outer loop
      vertex -73.5 -37.5 3.375
      vertex -13.5 -37.5 -0.375
      vertex -73.5 -37.5 -0.375
    endloop
  endfacet
  facet normal 0.987686 0.156446 0
    outer loop
      vertex -80.6329 -32.3176 3.375
      vertex -81 -30 -0.375
      vertex -81 -30 3.375
    endloop
  endfacet
  facet normal 0.987686 0.156446 0
    outer loop
      vertex -81 -30 -0.375
      vertex -80.6329 -32.3176 3.375
      vertex -80.6329 -32.3176 -0.375
    endloop
  endfacet
  facet normal 0.156446 -0.987686 0
    outer loop
      vertex -75.8176 37.1329 -0.375
      vertex -73.5 37.5 3.375
      vertex -75.8176 37.1329 3.375
    endloop
  endfacet
  facet normal 0.156446 -0.987686 0
    outer loop
      vertex -73.5 37.5 3.375
      vertex -75.8176 37.1329 -0.375
      vertex -73.5 37.5 -0.375
    endloop
  endfacet
  facet normal -1 0 0
    outer loop
      vertex -6 -30 -0.375
      vertex -6 30 1.875
      vertex -6 30 -0.375
    endloop
  endfacet
  facet normal -1 -0 0
    outer loop
      vertex -6 30 1.875
      vertex -6 -30 -0.375
      vertex -6 -30 1.875
    endloop
  endfacet
  facet normal -0.453987 -0.891008 0
    outer loop
      vertex -11.1824 37.1329 -0.375
      vertex -9.09161 36.0676 3.375
      vertex -11.1824 37.1329 3.375
    endloop
  endfacet
  facet normal -0.453987 -0.891008 -0
    outer loop
      vertex -9.09161 36.0676 3.375
      vertex -11.1824 37.1329 -0.375
      vertex -9.09161 36.0676 -0.375
    endloop
  endfacet
  facet normal 0.707107 -0.707107 0
    outer loop
      vertex -79.5676 34.4084 -0.375
      vertex -77.9084 36.0676 3.375
      vertex -79.5676 34.4084 3.375
    endloop
  endfacet
  facet normal 0.707107 -0.707107 0
    outer loop
      vertex -77.9084 36.0676 3.375
      vertex -79.5676 34.4084 -0.375
      vertex -77.9084 36.0676 -0.375
    endloop
  endfacet
  facet normal 0.707107 0.707107 -0
    outer loop
      vertex -77.9084 -36.0676 -0.375
      vertex -79.5676 -34.4084 3.375
      vertex -77.9084 -36.0676 3.375
    endloop
  endfacet
  facet normal 0.707107 0.707107 0
    outer loop
      vertex -79.5676 -34.4084 3.375
      vertex -77.9084 -36.0676 -0.375
      vertex -79.5676 -34.4084 -0.375
    endloop
  endfacet
  facet normal 0.987686 -0.156446 0
    outer loop
      vertex -81 30 3.375
      vertex -80.6329 32.3176 -0.375
      vertex -80.6329 32.3176 3.375
    endloop
  endfacet
  facet normal 0.987686 -0.156446 0
    outer loop
      vertex -80.6329 32.3176 -0.375
      vertex -81 30 3.375
      vertex -81 30 -0.375
    endloop
  endfacet
  facet normal 0.453985 0.891009 -0
    outer loop
      vertex -75.8176 -37.1329 -0.375
      vertex -77.9084 -36.0676 3.375
      vertex -75.8176 -37.1329 3.375
    endloop
  endfacet
  facet normal 0.453985 0.891009 0
    outer loop
      vertex -77.9084 -36.0676 3.375
      vertex -75.8176 -37.1329 -0.375
      vertex -77.9084 -36.0676 -0.375
    endloop
  endfacet
  facet normal 1 -0 0
    outer loop
      vertex -81 -30 3.375
      vertex -81 30 -0.375
      vertex -81 30 3.375
    endloop
  endfacet
  facet normal 1 0 0
    outer loop
      vertex -81 30 -0.375
      vertex -81 -30 3.375
      vertex -81 -30 -0.375
    endloop
  endfacet
  facet normal 0.156446 0.987686 -0
    outer loop
      vertex -73.5 -37.5 -0.375
      vertex -75.8176 -37.1329 3.375
      vertex -73.5 -37.5 3.375
    endloop
  endfacet
  facet normal 0.156446 0.987686 0
    outer loop
      vertex -75.8176 -37.1329 3.375
      vertex -73.5 -37.5 -0.375
      vertex -75.8176 -37.1329 -0.375
    endloop
  endfacet
  facet normal -0.987688 0.156438 0
    outer loop
      vertex -6.36708 -32.3176 -0.375
      vertex -6 -30 1.875
      vertex -6 -30 -0.375
    endloop
  endfacet
  facet normal -0.987688 0.156438 0
    outer loop
      vertex -6 -30 1.875
      vertex -6.36708 -32.3176 -0.375
      vertex -6.36708 -32.3176 1.875
    endloop
  endfacet
  facet normal 0.453985 -0.891009 0
    outer loop
      vertex -77.9084 36.0676 -0.375
      vertex -75.8176 37.1329 3.375
      vertex -77.9084 36.0676 3.375
    endloop
  endfacet
  facet normal 0.453985 -0.891009 0
    outer loop
      vertex -75.8176 37.1329 3.375
      vertex -77.9084 36.0676 -0.375
      vertex -75.8176 37.1329 -0.375
    endloop
  endfacet
  facet normal 0 -1 0
    outer loop
      vertex -73.5 37.5 -0.375
      vertex -13.5 37.5 3.375
      vertex -73.5 37.5 3.375
    endloop
  endfacet
  facet normal 0 -1 -0
    outer loop
      vertex -13.5 37.5 3.375
      vertex -73.5 37.5 -0.375
      vertex -13.5 37.5 -0.375
    endloop
  endfacet
  facet normal -0.891011 -0.453982 0
    outer loop
      vertex -6.36708 32.3176 -0.375
      vertex -7.43237 34.4084 1.875
      vertex -7.43237 34.4084 -0.375
    endloop
  endfacet
  facet normal -0.891011 -0.453982 0
    outer loop
      vertex -7.43237 34.4084 1.875
      vertex -6.36708 32.3176 -0.375
      vertex -6.36708 32.3176 1.875
    endloop
  endfacet
  facet normal -0.987688 -0.156438 0
    outer loop
      vertex -6 30 -0.375
      vertex -6.36708 32.3176 1.875
      vertex -6.36708 32.3176 -0.375
    endloop
  endfacet
  facet normal -0.987688 -0.156438 0
    outer loop
      vertex -6.36708 32.3176 1.875
      vertex -6 30 -0.375
      vertex -6 30 1.875
    endloop
  endfacet
  facet normal 0.891009 -0.453985 0
    outer loop
      vertex -80.6329 32.3176 3.375
      vertex -79.5676 34.4084 -0.375
      vertex -79.5676 34.4084 3.375
    endloop
  endfacet
  facet normal 0.891009 -0.453985 0
    outer loop
      vertex -79.5676 34.4084 -0.375
      vertex -80.6329 32.3176 3.375
      vertex -80.6329 32.3176 -0.375
    endloop
  endfacet
  facet normal -0.707097 -0.707117 0
    outer loop
      vertex -9.09161 36.0676 3.375
      vertex -8.02398 35 1.875
      vertex -8.02398 35 3.375
    endloop
  endfacet
  facet normal -0.707097 -0.707117 0
    outer loop
      vertex -9.09161 36.0676 -0.375
      vertex -8.02398 35 1.875
      vertex -9.09161 36.0676 3.375
    endloop
  endfacet
  facet normal -0.707098 -0.707115 1.33949e-06
    outer loop
      vertex -7.43237 34.4084 -0.375
      vertex -8.02398 35 1.875
      vertex -9.09161 36.0676 -0.375
    endloop
  endfacet
  facet normal -0.707101 -0.707113 0
    outer loop
      vertex -8.02398 35 1.875
      vertex -7.43237 34.4084 -0.375
      vertex -7.43237 34.4084 1.875
    endloop
  endfacet
  facet normal -0.891011 0.453982 0
    outer loop
      vertex -7.43237 -34.4084 -0.375
      vertex -6.36708 -32.3176 1.875
      vertex -6.36708 -32.3176 -0.375
    endloop
  endfacet
  facet normal -0.891011 0.453982 0
    outer loop
      vertex -6.36708 -32.3176 1.875
      vertex -7.43237 -34.4084 -0.375
      vertex -7.43237 -34.4084 1.875
    endloop
  endfacet
  facet normal 0 0 1
    outer loop
      vertex -13.5 37.5 -0.375
      vertex -6 30 -0.375
      vertex -6.36708 32.3176 -0.375
    endloop
  endfacet
  facet normal 0 0 1
    outer loop
      vertex -6 30 -0.375
      vertex -13.5 37.5 -0.375
      vertex -6 -30 -0.375
    endloop
  endfacet
  facet normal 0 0 1
    outer loop
      vertex -13.5 37.5 -0.375
      vertex -6.36708 32.3176 -0.375
      vertex -7.43237 34.4084 -0.375
    endloop
  endfacet
  facet normal 0 0 1
    outer loop
      vertex -13.5 -37.5 -0.375
      vertex -6 -30 -0.375
      vertex -13.5 37.5 -0.375
    endloop
  endfacet
  facet normal 0 0 1
    outer loop
      vertex -13.5 37.5 -0.375
      vertex -7.43237 34.4084 -0.375
      vertex -9.09161 36.0676 -0.375
    endloop
  endfacet
  facet normal 0 0 1
    outer loop
      vertex -6 -30 -0.375
      vertex -13.5 -37.5 -0.375
      vertex -6.36708 -32.3176 -0.375
    endloop
  endfacet
  facet normal 0 0 1
    outer loop
      vertex -13.5 37.5 -0.375
      vertex -9.09161 36.0676 -0.375
      vertex -11.1824 37.1329 -0.375
    endloop
  endfacet
  facet normal 0 0 1
    outer loop
      vertex -6.36708 -32.3176 -0.375
      vertex -13.5 -37.5 -0.375
      vertex -7.43237 -34.4084 -0.375
    endloop
  endfacet
  facet normal 0 0 1
    outer loop
      vertex -7.43237 -34.4084 -0.375
      vertex -13.5 -37.5 -0.375
      vertex -9.09161 -36.0676 -0.375
    endloop
  endfacet
  facet normal 0 0 1
    outer loop
      vertex -9.09161 -36.0676 -0.375
      vertex -13.5 -37.5 -0.375
      vertex -11.1824 -37.1329 -0.375
    endloop
  endfacet
  facet normal -0 0 1
    outer loop
      vertex -73.5 37.5 -0.375
      vertex -13.5 -37.5 -0.375
      vertex -13.5 37.5 -0.375
    endloop
  endfacet
  facet normal 0 0 1
    outer loop
      vertex -73.5 37.5 -0.375
      vertex -73.5 -37.5 -0.375
      vertex -13.5 -37.5 -0.375
    endloop
  endfacet
  facet normal 0 0 1
    outer loop
      vertex -81 30 -0.375
      vertex -73.5 37.5 -0.375
      vertex -75.8176 37.1329 -0.375
    endloop
  endfacet
  facet normal 0 0 1
    outer loop
      vertex -73.5 37.5 -0.375
      vertex -81 30 -0.375
      vertex -73.5 -37.5 -0.375
    endloop
  endfacet
  facet normal 0 0 1
    outer loop
      vertex -81 30 -0.375
      vertex -75.8176 37.1329 -0.375
      vertex -77.9084 36.0676 -0.375
    endloop
  endfacet
  facet normal -0 0 1
    outer loop
      vertex -81 -30 -0.375
      vertex -73.5 -37.5 -0.375
      vertex -81 30 -0.375
    endloop
  endfacet
  facet normal 0 0 1
    outer loop
      vertex -81 30 -0.375
      vertex -77.9084 36.0676 -0.375
      vertex -79.5676 34.4084 -0.375
    endloop
  endfacet
  facet normal 0 0 1
    outer loop
      vertex -73.5 -37.5 -0.375
      vertex -81 -30 -0.375
      vertex -75.8176 -37.1329 -0.375
    endloop
  endfacet
  facet normal 0 0 1
    outer loop
      vertex -81 30 -0.375
      vertex -79.5676 34.4084 -0.375
      vertex -80.6329 32.3176 -0.375
    endloop
  endfacet
  facet normal 0 0 1
    outer loop
      vertex -75.8176 -37.1329 -0.375
      vertex -81 -30 -0.375
      vertex -77.9084 -36.0676 -0.375
    endloop
  endfacet
  facet normal 0 0 1
    outer loop
      vertex -77.9084 -36.0676 -0.375
      vertex -81 -30 -0.375
      vertex -79.5676 -34.4084 -0.375
    endloop
  endfacet
  facet normal 0 0 1
    outer loop
      vertex -79.5676 -34.4084 -0.375
      vertex -81 -30 -0.375
      vertex -80.6329 -32.3176 -0.375
    endloop
  endfacet
  facet normal -0.707101 0.707113 0
    outer loop
      vertex -7.43237 -34.4084 1.875
      vertex -7.43237 -34.4084 -0.375
      vertex -8.02398 -35 1.875
    endloop
  endfacet
  facet normal -0.707097 0.707117 0
    outer loop
      vertex -8.02398 -35 1.875
      vertex -9.09161 -36.0676 3.375
      vertex -8.02398 -35 3.375
    endloop
  endfacet
  facet normal -0.707098 0.707115 1.33949e-06
    outer loop
      vertex -9.09161 -36.0676 -0.375
      vertex -8.02398 -35 1.875
      vertex -7.43237 -34.4084 -0.375
    endloop
  endfacet
  facet normal -0.707097 0.707117 0
    outer loop
      vertex -8.02398 -35 1.875
      vertex -9.09161 -36.0676 -0.375
      vertex -9.09161 -36.0676 3.375
    endloop
  endfacet
  facet normal -0.156446 0.987686 0
    outer loop
      vertex -11.1824 -37.1329 -0.375
      vertex -13.5 -37.5 3.375
      vertex -11.1824 -37.1329 3.375
    endloop
  endfacet
  facet normal -0.156446 0.987686 0
    outer loop
      vertex -13.5 -37.5 3.375
      vertex -11.1824 -37.1329 -0.375
      vertex -13.5 -37.5 -0.375
    endloop
  endfacet
  facet normal -0.453987 0.891008 0
    outer loop
      vertex -9.09161 -36.0676 -0.375
      vertex -11.1824 -37.1329 3.375
      vertex -9.09161 -36.0676 3.375
    endloop
  endfacet
  facet normal -0.453987 0.891008 0
    outer loop
      vertex -11.1824 -37.1329 3.375
      vertex -9.09161 -36.0676 -0.375
      vertex -11.1824 -37.1329 -0.375
    endloop
  endfacet
  facet normal -0.156446 -0.987686 0
    outer loop
      vertex -13.5 37.5 -0.375
      vertex -11.1824 37.1329 3.375
      vertex -13.5 37.5 3.375
    endloop
  endfacet
  facet normal -0.156446 -0.987686 -0
    outer loop
      vertex -11.1824 37.1329 3.375
      vertex -13.5 37.5 -0.375
      vertex -11.1824 37.1329 -0.375
    endloop
  endfacet
  facet normal 0 0 1
    outer loop
      vertex 6 30 1.875
      vertex -6 30 1.875
      vertex 6 -30 1.875
    endloop
  endfacet
  facet normal 0 0 1
    outer loop
      vertex 6.36708 32.3176 1.875
      vertex -6 30 1.875
      vertex 6 30 1.875
    endloop
  endfacet
  facet normal 0 0 1
    outer loop
      vertex -6.36708 32.3176 1.875
      vertex 6.36708 32.3176 1.875
      vertex 7.43237 34.4084 1.875
    endloop
  endfacet
  facet normal 0 0 1
    outer loop
      vertex -7.43237 34.4084 1.875
      vertex 7.43237 34.4084 1.875
      vertex 8.02398 35 1.875
    endloop
  endfacet
  facet normal 0 0 1
    outer loop
      vertex 6.36708 32.3176 1.875
      vertex -6.36708 32.3176 1.875
      vertex -6 30 1.875
    endloop
  endfacet
  facet normal 0 0 1
    outer loop
      vertex 7.43237 34.4084 1.875
      vertex -7.43237 34.4084 1.875
      vertex -6.36708 32.3176 1.875
    endloop
  endfacet
  facet normal 0 -0 1
    outer loop
      vertex -7.43237 34.4084 1.875
      vertex 8.02398 35 1.875
      vertex -8.02398 35 1.875
    endloop
  endfacet
  facet normal 0 0 1
    outer loop
      vertex -6 -30 1.875
      vertex 6 -30 1.875
      vertex -6 30 1.875
    endloop
  endfacet
  facet normal 0 0 1
    outer loop
      vertex 6 -30 1.875
      vertex -6 -30 1.875
      vertex 6.36708 -32.3176 1.875
    endloop
  endfacet
  facet normal 0 0 1
    outer loop
      vertex -6.36708 -32.3176 1.875
      vertex 6.36708 -32.3176 1.875
      vertex -6 -30 1.875
    endloop
  endfacet
  facet normal 0 0 1
    outer loop
      vertex 6.36708 -32.3176 1.875
      vertex -6.36708 -32.3176 1.875
      vertex 7.43237 -34.4084 1.875
    endloop
  endfacet
  facet normal 0 0 1
    outer loop
      vertex -7.43237 -34.4084 1.875
      vertex 7.43237 -34.4084 1.875
      vertex -6.36708 -32.3176 1.875
    endloop
  endfacet
  facet normal 0 0 1
    outer loop
      vertex 7.43237 -34.4084 1.875
      vertex -7.43237 -34.4084 1.875
      vertex 8.02398 -35 1.875
    endloop
  endfacet
  facet normal 0 0 1
    outer loop
      vertex 8.02398 -35 1.875
      vertex -7.43237 -34.4084 1.875
      vertex -8.02398 -35 1.875
    endloop
  endfacet
  facet normal 0 -1 0
    outer loop
      vertex -8.02398 35 1.875
      vertex 8.02398 35 3.375
      vertex -8.02398 35 3.375
    endloop
  endfacet
  facet normal 0 -1 -0
    outer loop
      vertex 8.02398 35 3.375
      vertex -8.02398 35 1.875
      vertex 8.02398 35 1.875
    endloop
  endfacet
  facet normal 0 1 -0
    outer loop
      vertex 8.02398 -35 1.875
      vertex -8.02398 -35 3.375
      vertex 8.02398 -35 3.375
    endloop
  endfacet
  facet normal 0 1 0
    outer loop
      vertex -8.02398 -35 3.375
      vertex 8.02398 -35 1.875
      vertex -8.02398 -35 1.875
    endloop
  endfacet
  facet normal -1 0 0
    outer loop
      vertex 49.5 37.5 -0.375
      vertex 49.5 40 3.375
      vertex 49.5 40 -0.375
    endloop
  endfacet
  facet normal -1 -0 0
    outer loop
      vertex 49.5 40 3.375
      vertex 49.5 37.5 -0.375
      vertex 49.5 37.5 3.375
    endloop
  endfacet
  facet normal 1 -0 0
    outer loop
      vertex 37.5 37.5 3.375
      vertex 37.5 40 -0.375
      vertex 37.5 40 3.375
    endloop
  endfacet
  facet normal 1 0 0
    outer loop
      vertex 37.5 40 -0.375
      vertex 37.5 37.5 3.375
      vertex 37.5 37.5 -0.375
    endloop
  endfacet
  facet normal -0.891005 -0.453993 0
    outer loop
      vertex -81.6379 -35.9809 -3.375
      vertex -83.0228 -33.2629 3.375
      vertex -83.0228 -33.2629 -3.375
    endloop
  endfacet
  facet normal -0.891005 -0.453993 0
    outer loop
      vertex -83.0228 -33.2629 3.375
      vertex -81.6379 -35.9809 -3.375
      vertex -81.6379 -35.9809 3.375
    endloop
  endfacet
  facet normal -0.891005 0.453993 0
    outer loop
      vertex -83.0228 33.2629 -3.375
      vertex -81.6379 35.9809 3.375
      vertex -81.6379 35.9809 -3.375
    endloop
  endfacet
  facet normal -0.891005 0.453993 0
    outer loop
      vertex -81.6379 35.9809 3.375
      vertex -83.0228 33.2629 -3.375
      vertex -83.0228 33.2629 3.375
    endloop
  endfacet
  facet normal 0 -1 0
    outer loop
      vertex -73.75 -40 -3.375
      vertex 73.75 -40 3.375
      vertex -73.75 -40 3.375
    endloop
  endfacet
  facet normal 0 -1 -0
    outer loop
      vertex 73.75 -40 3.375
      vertex -73.75 -40 -3.375
      vertex 73.75 -40 -3.375
    endloop
  endfacet
  facet normal -0.987688 -0.156436 0
    outer loop
      vertex -83.0228 -33.2629 -3.375
      vertex -83.5 -30.25 3.375
      vertex -83.5 -30.25 -3.375
    endloop
  endfacet
  facet normal -0.987688 -0.156436 0
    outer loop
      vertex -83.5 -30.25 3.375
      vertex -83.0228 -33.2629 -3.375
      vertex -83.0228 -33.2629 3.375
    endloop
  endfacet
  facet normal 0.987688 0.156436 0
    outer loop
      vertex 83.5 30.25 3.375
      vertex 83.0228 33.2629 -3.375
      vertex 83.0228 33.2629 3.375
    endloop
  endfacet
  facet normal 0.987688 0.156436 0
    outer loop
      vertex 83.0228 33.2629 -3.375
      vertex 83.5 30.25 3.375
      vertex 83.5 30.25 -3.375
    endloop
  endfacet
  facet normal -0.453993 0.891005 0
    outer loop
      vertex -76.7629 39.5228 -3.375
      vertex -79.4809 38.1379 3.375
      vertex -76.7629 39.5228 3.375
    endloop
  endfacet
  facet normal -0.453993 0.891005 0
    outer loop
      vertex -79.4809 38.1379 3.375
      vertex -76.7629 39.5228 -3.375
      vertex -79.4809 38.1379 -3.375
    endloop
  endfacet
  facet normal 0.707107 -0.707107 0
    outer loop
      vertex 79.4809 -38.1379 3.375
      vertex 81.6379 -35.9809 -3.375
      vertex 81.6379 -35.9809 3.375
    endloop
  endfacet
  facet normal 0.707107 -0.707107 0
    outer loop
      vertex 81.6379 -35.9809 -3.375
      vertex 79.4809 -38.1379 3.375
      vertex 79.4809 -38.1379 -3.375
    endloop
  endfacet
  facet normal 1 -0 0
    outer loop
      vertex 83.5 -30.25 3.375
      vertex 83.5 30.25 -3.375
      vertex 83.5 30.25 3.375
    endloop
  endfacet
  facet normal 1 0 0
    outer loop
      vertex 83.5 30.25 -3.375
      vertex 83.5 -30.25 3.375
      vertex 83.5 -30.25 -3.375
    endloop
  endfacet
  facet normal 0.453993 0.891005 -0
    outer loop
      vertex 79.4809 38.1379 -3.375
      vertex 76.7629 39.5228 3.375
      vertex 79.4809 38.1379 3.375
    endloop
  endfacet
  facet normal 0.453993 0.891005 0
    outer loop
      vertex 76.7629 39.5228 3.375
      vertex 79.4809 38.1379 -3.375
      vertex 76.7629 39.5228 -3.375
    endloop
  endfacet
  facet normal 0 1 0
    outer loop
      vertex 73.75 40 3.375
      vertex 49.5 40 -0.375
      vertex 49.5 40 3.375
    endloop
  endfacet
  facet normal 0 1 0
    outer loop
      vertex 49.5 40 -0.375
      vertex 73.75 40 -3.375
      vertex 37.5 40 -0.375
    endloop
  endfacet
  facet normal 0 1 -0
    outer loop
      vertex 73.75 40 -3.375
      vertex 49.5 40 -0.375
      vertex 73.75 40 3.375
    endloop
  endfacet
  facet normal 0 1 -0
    outer loop
      vertex 37.5 40 -0.375
      vertex -73.75 40 3.375
      vertex 37.5 40 3.375
    endloop
  endfacet
  facet normal 0 1 0
    outer loop
      vertex -73.75 40 -3.375
      vertex 37.5 40 -0.375
      vertex 73.75 40 -3.375
    endloop
  endfacet
  facet normal 0 1 0
    outer loop
      vertex 37.5 40 -0.375
      vertex -73.75 40 -3.375
      vertex -73.75 40 3.375
    endloop
  endfacet
  facet normal -0.707107 -0.707107 0
    outer loop
      vertex -79.4809 -38.1379 -3.375
      vertex -81.6379 -35.9809 3.375
      vertex -81.6379 -35.9809 -3.375
    endloop
  endfacet
  facet normal -0.707107 -0.707107 0
    outer loop
      vertex -81.6379 -35.9809 3.375
      vertex -79.4809 -38.1379 -3.375
      vertex -79.4809 -38.1379 3.375
    endloop
  endfacet
  facet normal 0 0 -1
    outer loop
      vertex 73.75 -40 -3.375
      vertex 83.5 -30.25 -3.375
      vertex 83.0228 -33.2629 -3.375
    endloop
  endfacet
  facet normal -0 0 -1
    outer loop
      vertex 83.5 -30.25 -3.375
      vertex 73.75 -40 -3.375
      vertex 83.5 30.25 -3.375
    endloop
  endfacet
  facet normal 0 0 -1
    outer loop
      vertex 73.75 -40 -3.375
      vertex 83.0228 -33.2629 -3.375
      vertex 81.6379 -35.9809 -3.375
    endloop
  endfacet
  facet normal 0 0 -1
    outer loop
      vertex 73.75 40 -3.375
      vertex 83.5 30.25 -3.375
      vertex 73.75 -40 -3.375
    endloop
  endfacet
  facet normal 0 0 -1
    outer loop
      vertex 73.75 -40 -3.375
      vertex 81.6379 -35.9809 -3.375
      vertex 79.4809 -38.1379 -3.375
    endloop
  endfacet
  facet normal 0 0 -1
    outer loop
      vertex 83.5 30.25 -3.375
      vertex 73.75 40 -3.375
      vertex 83.0228 33.2629 -3.375
    endloop
  endfacet
  facet normal 0 0 -1
    outer loop
      vertex 73.75 -40 -3.375
      vertex 79.4809 -38.1379 -3.375
      vertex 76.7629 -39.5228 -3.375
    endloop
  endfacet
  facet normal 0 0 -1
    outer loop
      vertex 83.0228 33.2629 -3.375
      vertex 73.75 40 -3.375
      vertex 81.6379 35.9809 -3.375
    endloop
  endfacet
  facet normal 0 0 -1
    outer loop
      vertex 81.6379 35.9809 -3.375
      vertex 73.75 40 -3.375
      vertex 79.4809 38.1379 -3.375
    endloop
  endfacet
  facet normal 0 0 -1
    outer loop
      vertex 79.4809 38.1379 -3.375
      vertex 73.75 40 -3.375
      vertex 76.7629 39.5228 -3.375
    endloop
  endfacet
  facet normal 0 0 -1
    outer loop
      vertex -73.75 -40 -3.375
      vertex 73.75 40 -3.375
      vertex 73.75 -40 -3.375
    endloop
  endfacet
  facet normal 0 0 -1
    outer loop
      vertex -73.75 -40 -3.375
      vertex -73.75 40 -3.375
      vertex 73.75 40 -3.375
    endloop
  endfacet
  facet normal 0 0 -1
    outer loop
      vertex -83.5 -30.25 -3.375
      vertex -73.75 -40 -3.375
      vertex -76.7629 -39.5228 -3.375
    endloop
  endfacet
  facet normal 0 0 -1
    outer loop
      vertex -73.75 -40 -3.375
      vertex -83.5 -30.25 -3.375
      vertex -73.75 40 -3.375
    endloop
  endfacet
  facet normal 0 0 -1
    outer loop
      vertex -83.5 -30.25 -3.375
      vertex -76.7629 -39.5228 -3.375
      vertex -79.4809 -38.1379 -3.375
    endloop
  endfacet
  facet normal 0 0 -1
    outer loop
      vertex -83.5 30.25 -3.375
      vertex -73.75 40 -3.375
      vertex -83.5 -30.25 -3.375
    endloop
  endfacet
  facet normal 0 0 -1
    outer loop
      vertex -83.5 -30.25 -3.375
      vertex -79.4809 -38.1379 -3.375
      vertex -81.6379 -35.9809 -3.375
    endloop
  endfacet
  facet normal 0 0 -1
    outer loop
      vertex -73.75 40 -3.375
      vertex -83.5 30.25 -3.375
      vertex -76.7629 39.5228 -3.375
    endloop
  endfacet
  facet normal 0 0 -1
    outer loop
      vertex -83.5 -30.25 -3.375
      vertex -81.6379 -35.9809 -3.375
      vertex -83.0228 -33.2629 -3.375
    endloop
  endfacet
  facet normal 0 0 -1
    outer loop
      vertex -76.7629 39.5228 -3.375
      vertex -83.5 30.25 -3.375
      vertex -79.4809 38.1379 -3.375
    endloop
  endfacet
  facet normal 0 0 -1
    outer loop
      vertex -79.4809 38.1379 -3.375
      vertex -83.5 30.25 -3.375
      vertex -81.6379 35.9809 -3.375
    endloop
  endfacet
  facet normal 0 0 -1
    outer loop
      vertex -81.6379 35.9809 -3.375
      vertex -83.5 30.25 -3.375
      vertex -83.0228 33.2629 -3.375
    endloop
  endfacet
  facet normal -0.987688 0.156436 0
    outer loop
      vertex -83.5 30.25 -3.375
      vertex -83.0228 33.2629 3.375
      vertex -83.0228 33.2629 -3.375
    endloop
  endfacet
  facet normal -0.987688 0.156436 0
    outer loop
      vertex -83.0228 33.2629 3.375
      vertex -83.5 30.25 -3.375
      vertex -83.5 30.25 3.375
    endloop
  endfacet
  facet normal -1 0 0
    outer loop
      vertex -83.5 -30.25 -3.375
      vertex -83.5 30.25 3.375
      vertex -83.5 30.25 -3.375
    endloop
  endfacet
  facet normal -1 -0 0
    outer loop
      vertex -83.5 30.25 3.375
      vertex -83.5 -30.25 -3.375
      vertex -83.5 -30.25 3.375
    endloop
  endfacet
  facet normal 0.156436 -0.987688 0
    outer loop
      vertex 73.75 -40 -3.375
      vertex 76.7629 -39.5228 3.375
      vertex 73.75 -40 3.375
    endloop
  endfacet
  facet normal 0.156436 -0.987688 0
    outer loop
      vertex 76.7629 -39.5228 3.375
      vertex 73.75 -40 -3.375
      vertex 76.7629 -39.5228 -3.375
    endloop
  endfacet
  facet normal 0.891005 -0.453993 0
    outer loop
      vertex 81.6379 -35.9809 3.375
      vertex 83.0228 -33.2629 -3.375
      vertex 83.0228 -33.2629 3.375
    endloop
  endfacet
  facet normal 0.891005 -0.453993 0
    outer loop
      vertex 83.0228 -33.2629 -3.375
      vertex 81.6379 -35.9809 3.375
      vertex 81.6379 -35.9809 -3.375
    endloop
  endfacet
  facet normal 0.453993 -0.891005 0
    outer loop
      vertex 76.7629 -39.5228 -3.375
      vertex 79.4809 -38.1379 3.375
      vertex 76.7629 -39.5228 3.375
    endloop
  endfacet
  facet normal 0.453993 -0.891005 0
    outer loop
      vertex 79.4809 -38.1379 3.375
      vertex 76.7629 -39.5228 -3.375
      vertex 79.4809 -38.1379 -3.375
    endloop
  endfacet
  facet normal 0.156436 0.987688 -0
    outer loop
      vertex 76.7629 39.5228 -3.375
      vertex 73.75 40 3.375
      vertex 76.7629 39.5228 3.375
    endloop
  endfacet
  facet normal 0.156436 0.987688 0
    outer loop
      vertex 73.75 40 3.375
      vertex 76.7629 39.5228 -3.375
      vertex 73.75 40 -3.375
    endloop
  endfacet
  facet normal -0.156436 -0.987688 0
    outer loop
      vertex -76.7629 -39.5228 -3.375
      vertex -73.75 -40 3.375
      vertex -76.7629 -39.5228 3.375
    endloop
  endfacet
  facet normal -0.156436 -0.987688 -0
    outer loop
      vertex -73.75 -40 3.375
      vertex -76.7629 -39.5228 -3.375
      vertex -73.75 -40 -3.375
    endloop
  endfacet
  facet normal 0.891005 0.453993 0
    outer loop
      vertex 83.0228 33.2629 3.375
      vertex 81.6379 35.9809 -3.375
      vertex 81.6379 35.9809 3.375
    endloop
  endfacet
  facet normal 0.891005 0.453993 0
    outer loop
      vertex 81.6379 35.9809 -3.375
      vertex 83.0228 33.2629 3.375
      vertex 83.0228 33.2629 -3.375
    endloop
  endfacet
  facet normal -0.156436 0.987688 0
    outer loop
      vertex -73.75 40 -3.375
      vertex -76.7629 39.5228 3.375
      vertex -73.75 40 3.375
    endloop
  endfacet
  facet normal -0.156436 0.987688 0
    outer loop
      vertex -76.7629 39.5228 3.375
      vertex -73.75 40 -3.375
      vertex -76.7629 39.5228 -3.375
    endloop
  endfacet
  facet normal -0.453993 -0.891005 0
    outer loop
      vertex -79.4809 -38.1379 -3.375
      vertex -76.7629 -39.5228 3.375
      vertex -79.4809 -38.1379 3.375
    endloop
  endfacet
  facet normal -0.453993 -0.891005 -0
    outer loop
      vertex -76.7629 -39.5228 3.375
      vertex -79.4809 -38.1379 -3.375
      vertex -76.7629 -39.5228 -3.375
    endloop
  endfacet
  facet normal 0 0 1
    outer loop
      vertex 37.5 40 3.375
      vertex 13.5 37.5 3.375
      vertex 37.5 37.5 3.375
    endloop
  endfacet
  facet normal 0 0 1
    outer loop
      vertex 9.09161 36.0676 3.375
      vertex -8.02398 35 3.375
      vertex 8.02398 35 3.375
    endloop
  endfacet
  facet normal 0 0 1
    outer loop
      vertex -9.09161 36.0676 3.375
      vertex 9.09161 36.0676 3.375
      vertex 11.1824 37.1329 3.375
    endloop
  endfacet
  facet normal 0 0 1
    outer loop
      vertex -11.1824 37.1329 3.375
      vertex 11.1824 37.1329 3.375
      vertex 13.5 37.5 3.375
    endloop
  endfacet
  facet normal 0 0 1
    outer loop
      vertex 9.09161 36.0676 3.375
      vertex -9.09161 36.0676 3.375
      vertex -8.02398 35 3.375
    endloop
  endfacet
  facet normal 0 0 1
    outer loop
      vertex -13.5 37.5 3.375
      vertex 13.5 37.5 3.375
      vertex 37.5 40 3.375
    endloop
  endfacet
  facet normal 0 0 1
    outer loop
      vertex 11.1824 37.1329 3.375
      vertex -11.1824 37.1329 3.375
      vertex -9.09161 36.0676 3.375
    endloop
  endfacet
  facet normal 0 0 1
    outer loop
      vertex 13.5 37.5 3.375
      vertex -13.5 37.5 3.375
      vertex -11.1824 37.1329 3.375
    endloop
  endfacet
  facet normal -0 0 1
    outer loop
      vertex -73.75 40 3.375
      vertex -13.5 37.5 3.375
      vertex 37.5 40 3.375
    endloop
  endfacet
  facet normal 0 0 1
    outer loop
      vertex -13.5 37.5 3.375
      vertex -73.75 40 3.375
      vertex -73.5 37.5 3.375
    endloop
  endfacet
  facet normal 0 0 1
    outer loop
      vertex -73.75 40 3.375
      vertex -75.8176 37.1329 3.375
      vertex -73.5 37.5 3.375
    endloop
  endfacet
  facet normal -0 0 1
    outer loop
      vertex -76.7629 39.5228 3.375
      vertex -75.8176 37.1329 3.375
      vertex -73.75 40 3.375
    endloop
  endfacet
  facet normal 0 0 1
    outer loop
      vertex -76.7629 39.5228 3.375
      vertex -77.9084 36.0676 3.375
      vertex -75.8176 37.1329 3.375
    endloop
  endfacet
  facet normal -0 0 1
    outer loop
      vertex -79.4809 38.1379 3.375
      vertex -77.9084 36.0676 3.375
      vertex -76.7629 39.5228 3.375
    endloop
  endfacet
  facet normal 0 0 1
    outer loop
      vertex -79.4809 38.1379 3.375
      vertex -79.5676 34.4084 3.375
      vertex -77.9084 36.0676 3.375
    endloop
  endfacet
  facet normal -0 0 1
    outer loop
      vertex -81.6379 35.9809 3.375
      vertex -79.5676 34.4084 3.375
      vertex -79.4809 38.1379 3.375
    endloop
  endfacet
  facet normal 0 0 1
    outer loop
      vertex -83.5 30.25 3.375
      vertex -80.6329 32.3176 3.375
      vertex -83.0228 33.2629 3.375
    endloop
  endfacet
  facet normal 0 0 1
    outer loop
      vertex -79.5676 34.4084 3.375
      vertex -83.0228 33.2629 3.375
      vertex -80.6329 32.3176 3.375
    endloop
  endfacet
  facet normal 0 0 1
    outer loop
      vertex -83.0228 33.2629 3.375
      vertex -79.5676 34.4084 3.375
      vertex -81.6379 35.9809 3.375
    endloop
  endfacet
  facet normal -0 0 1
    outer loop
      vertex 80.6329 32.3176 3.375
      vertex 83.5 30.25 3.375
      vertex 83.0228 33.2629 3.375
    endloop
  endfacet
  facet normal 0 0 1
    outer loop
      vertex 83.5 30.25 3.375
      vertex 81 30 3.375
      vertex 83.5 -30.25 3.375
    endloop
  endfacet
  facet normal -0 0 1
    outer loop
      vertex 79.5676 34.4084 3.375
      vertex 83.0228 33.2629 3.375
      vertex 81.6379 35.9809 3.375
    endloop
  endfacet
  facet normal -0 0 1
    outer loop
      vertex 81 -30 3.375
      vertex 83.5 -30.25 3.375
      vertex 81 30 3.375
    endloop
  endfacet
  facet normal 0 0 1
    outer loop
      vertex 80.6329 -32.3176 3.375
      vertex 83.5 -30.25 3.375
      vertex 81 -30 3.375
    endloop
  endfacet
  facet normal 0 0 1
    outer loop
      vertex 83.5 30.25 3.375
      vertex 80.6329 32.3176 3.375
      vertex 81 30 3.375
    endloop
  endfacet
  facet normal 0 0 1
    outer loop
      vertex 83.0228 33.2629 3.375
      vertex 79.5676 34.4084 3.375
      vertex 80.6329 32.3176 3.375
    endloop
  endfacet
  facet normal 0 0 1
    outer loop
      vertex 79.4809 38.1379 3.375
      vertex 79.5676 34.4084 3.375
      vertex 81.6379 35.9809 3.375
    endloop
  endfacet
  facet normal 0 0 1
    outer loop
      vertex 79.4809 38.1379 3.375
      vertex 77.9084 36.0676 3.375
      vertex 79.5676 34.4084 3.375
    endloop
  endfacet
  facet normal 0 0 1
    outer loop
      vertex 76.7629 39.5228 3.375
      vertex 77.9084 36.0676 3.375
      vertex 79.4809 38.1379 3.375
    endloop
  endfacet
  facet normal 0 0 1
    outer loop
      vertex 76.7629 39.5228 3.375
      vertex 75.8176 37.1329 3.375
      vertex 77.9084 36.0676 3.375
    endloop
  endfacet
  facet normal 0 0 1
    outer loop
      vertex 73.75 40 3.375
      vertex 75.8176 37.1329 3.375
      vertex 76.7629 39.5228 3.375
    endloop
  endfacet
  facet normal 0 0 1
    outer loop
      vertex 73.75 40 3.375
      vertex 73.5 37.5 3.375
      vertex 75.8176 37.1329 3.375
    endloop
  endfacet
  facet normal -0 0 1
    outer loop
      vertex 49.5 40 3.375
      vertex 73.5 37.5 3.375
      vertex 73.75 40 3.375
    endloop
  endfacet
  facet normal 0 0 1
    outer loop
      vertex 73.5 37.5 3.375
      vertex 49.5 40 3.375
      vertex 49.5 37.5 3.375
    endloop
  endfacet
  facet normal 0 0 1
    outer loop
      vertex 83.5 -30.25 3.375
      vertex 80.6329 -32.3176 3.375
      vertex 83.0228 -33.2629 3.375
    endloop
  endfacet
  facet normal 0 0 1
    outer loop
      vertex 79.5676 -34.4084 3.375
      vertex 83.0228 -33.2629 3.375
      vertex 80.6329 -32.3176 3.375
    endloop
  endfacet
  facet normal 0 0 1
    outer loop
      vertex 83.0228 -33.2629 3.375
      vertex 79.5676 -34.4084 3.375
      vertex 81.6379 -35.9809 3.375
    endloop
  endfacet
  facet normal 0 0 1
    outer loop
      vertex 79.5676 -34.4084 3.375
      vertex 79.4809 -38.1379 3.375
      vertex 81.6379 -35.9809 3.375
    endloop
  endfacet
  facet normal -0 0 1
    outer loop
      vertex 77.9084 -36.0676 3.375
      vertex 79.4809 -38.1379 3.375
      vertex 79.5676 -34.4084 3.375
    endloop
  endfacet
  facet normal 0 0 1
    outer loop
      vertex 77.9084 -36.0676 3.375
      vertex 76.7629 -39.5228 3.375
      vertex 79.4809 -38.1379 3.375
    endloop
  endfacet
  facet normal -0 0 1
    outer loop
      vertex 75.8176 -37.1329 3.375
      vertex 76.7629 -39.5228 3.375
      vertex 77.9084 -36.0676 3.375
    endloop
  endfacet
  facet normal 0 0 1
    outer loop
      vertex 75.8176 -37.1329 3.375
      vertex 73.75 -40 3.375
      vertex 76.7629 -39.5228 3.375
    endloop
  endfacet
  facet normal -0 0 1
    outer loop
      vertex 73.5 -37.5 3.375
      vertex 73.75 -40 3.375
      vertex 75.8176 -37.1329 3.375
    endloop
  endfacet
  facet normal -0 0 1
    outer loop
      vertex 13.5 -37.5 3.375
      vertex 73.75 -40 3.375
      vertex 73.5 -37.5 3.375
    endloop
  endfacet
  facet normal -0 0 1
    outer loop
      vertex -8.02398 -35 3.375
      vertex 9.09161 -36.0676 3.375
      vertex 8.02398 -35 3.375
    endloop
  endfacet
  facet normal 0 0 1
    outer loop
      vertex -9.09161 -36.0676 3.375
      vertex 9.09161 -36.0676 3.375
      vertex -8.02398 -35 3.375
    endloop
  endfacet
  facet normal 0 0 1
    outer loop
      vertex 9.09161 -36.0676 3.375
      vertex -9.09161 -36.0676 3.375
      vertex 11.1824 -37.1329 3.375
    endloop
  endfacet
  facet normal 0 0 1
    outer loop
      vertex -11.1824 -37.1329 3.375
      vertex 11.1824 -37.1329 3.375
      vertex -9.09161 -36.0676 3.375
    endloop
  endfacet
  facet normal 0 0 1
    outer loop
      vertex 11.1824 -37.1329 3.375
      vertex -11.1824 -37.1329 3.375
      vertex 13.5 -37.5 3.375
    endloop
  endfacet
  facet normal 0 0 1
    outer loop
      vertex -13.5 -37.5 3.375
      vertex 13.5 -37.5 3.375
      vertex -11.1824 -37.1329 3.375
    endloop
  endfacet
  facet normal 0 0 1
    outer loop
      vertex 13.5 -37.5 3.375
      vertex -13.5 -37.5 3.375
      vertex 73.75 -40 3.375
    endloop
  endfacet
  facet normal 0 0 1
    outer loop
      vertex -73.75 -40 3.375
      vertex -13.5 -37.5 3.375
      vertex -73.5 -37.5 3.375
    endloop
  endfacet
  facet normal 0 0 1
    outer loop
      vertex -13.5 -37.5 3.375
      vertex -73.75 -40 3.375
      vertex 73.75 -40 3.375
    endloop
  endfacet
  facet normal 0 0 1
    outer loop
      vertex -75.8176 -37.1329 3.375
      vertex -73.75 -40 3.375
      vertex -73.5 -37.5 3.375
    endloop
  endfacet
  facet normal 0 0 1
    outer loop
      vertex -75.8176 -37.1329 3.375
      vertex -76.7629 -39.5228 3.375
      vertex -73.75 -40 3.375
    endloop
  endfacet
  facet normal 0 0 1
    outer loop
      vertex -77.9084 -36.0676 3.375
      vertex -76.7629 -39.5228 3.375
      vertex -75.8176 -37.1329 3.375
    endloop
  endfacet
  facet normal 0 0 1
    outer loop
      vertex -77.9084 -36.0676 3.375
      vertex -79.4809 -38.1379 3.375
      vertex -76.7629 -39.5228 3.375
    endloop
  endfacet
  facet normal 0 0 1
    outer loop
      vertex -79.5676 -34.4084 3.375
      vertex -79.4809 -38.1379 3.375
      vertex -77.9084 -36.0676 3.375
    endloop
  endfacet
  facet normal -0 0 1
    outer loop
      vertex -83.0228 -33.2629 3.375
      vertex -79.5676 -34.4084 3.375
      vertex -80.6329 -32.3176 3.375
    endloop
  endfacet
  facet normal 0 0 1
    outer loop
      vertex -79.5676 -34.4084 3.375
      vertex -81.6379 -35.9809 3.375
      vertex -79.4809 -38.1379 3.375
    endloop
  endfacet
  facet normal -0 0 1
    outer loop
      vertex -83.5 -30.25 3.375
      vertex -80.6329 -32.3176 3.375
      vertex -81 -30 3.375
    endloop
  endfacet
  facet normal 0 0 1
    outer loop
      vertex -81 30 3.375
      vertex -83.5 30.25 3.375
      vertex -81 -30 3.375
    endloop
  endfacet
  facet normal 0 0 1
    outer loop
      vertex -80.6329 32.3176 3.375
      vertex -83.5 30.25 3.375
      vertex -81 30 3.375
    endloop
  endfacet
  facet normal 0 0 1
    outer loop
      vertex -83.5 -30.25 3.375
      vertex -81 -30 3.375
      vertex -83.5 30.25 3.375
    endloop
  endfacet
  facet normal 0 0 1
    outer loop
      vertex -80.6329 -32.3176 3.375
      vertex -83.5 -30.25 3.375
      vertex -83.0228 -33.2629 3.375
    endloop
  endfacet
  facet normal 0 0 1
    outer loop
      vertex -79.5676 -34.4084 3.375
      vertex -83.0228 -33.2629 3.375
      vertex -81.6379 -35.9809 3.375
    endloop
  endfacet
  facet normal 0.707107 0.707107 0
    outer loop
      vertex 81.6379 35.9809 3.375
      vertex 79.4809 38.1379 -3.375
      vertex 79.4809 38.1379 3.375
    endloop
  endfacet
  facet normal 0.707107 0.707107 0
    outer loop
      vertex 79.4809 38.1379 -3.375
      vertex 81.6379 35.9809 3.375
      vertex 81.6379 35.9809 -3.375
    endloop
  endfacet
  facet normal -0.707107 0.707107 0
    outer loop
      vertex -81.6379 35.9809 -3.375
      vertex -79.4809 38.1379 3.375
      vertex -79.4809 38.1379 -3.375
    endloop
  endfacet
  facet normal -0.707107 0.707107 0
    outer loop
      vertex -79.4809 38.1379 3.375
      vertex -81.6379 35.9809 -3.375
      vertex -81.6379 35.9809 3.375
    endloop
  endfacet
  facet normal 0.987688 -0.156436 0
    outer loop
      vertex 83.0228 -33.2629 3.375
      vertex 83.5 -30.25 -3.375
      vertex 83.5 -30.25 3.375
    endloop
  endfacet
  facet normal 0.987688 -0.156436 0
    outer loop
      vertex 83.5 -30.25 -3.375
      vertex 83.0228 -33.2629 3.375
      vertex 83.0228 -33.2629 -3.375
    endloop
  endfacet
endsolid OpenSCAD_Model
