solid OpenSCAD_Model
  facet normal -0 0 1
    outer loop
      vertex -6 2.515 3.75
      vertex 6 -2.515 3.75
      vertex 6 2.515 3.75
    endloop
  endfacet
  facet normal 0 0 1
    outer loop
      vertex 6 -2.515 3.75
      vertex -6 2.515 3.75
      vertex -6 -2.515 3.75
    endloop
  endfacet
  facet normal 0 0 -1
    outer loop
      vertex -6 -2.515 -3.75
      vertex 6 2.515 -3.75
      vertex 6 -2.515 -3.75
    endloop
  endfacet
  facet normal -0 0 -1
    outer loop
      vertex 6 2.515 -3.75
      vertex -6 -2.515 -3.75
      vertex -6 2.515 -3.75
    endloop
  endfacet
  facet normal 0 -1 0
    outer loop
      vertex -6 -2.515 -3.75
      vertex 6 -2.515 3.75
      vertex -6 -2.515 3.75
    endloop
  endfacet
  facet normal 0 -1 -0
    outer loop
      vertex 6 -2.515 3.75
      vertex -6 -2.515 -3.75
      vertex 6 -2.515 -3.75
    endloop
  endfacet
  facet normal 1 -0 0
    outer loop
      vertex 6 -2.515 3.75
      vertex 6 2.515 -3.75
      vertex 6 2.515 3.75
    endloop
  endfacet
  facet normal 1 0 0
    outer loop
      vertex 6 2.515 -3.75
      vertex 6 -2.515 3.75
      vertex 6 -2.515 -3.75
    endloop
  endfacet
  facet normal 0 1 -0
    outer loop
      vertex 6 2.515 -3.75
      vertex -6 2.515 3.75
      vertex 6 2.515 3.75
    endloop
  endfacet
  facet normal 0 1 0
    outer loop
      vertex -6 2.515 3.75
      vertex 6 2.515 -3.75
      vertex -6 2.515 -3.75
    endloop
  endfacet
  facet normal -1 0 0
    outer loop
      vertex -6 -2.515 -3.75
      vertex -6 2.515 3.75
      vertex -6 2.515 -3.75
    endloop
  endfacet
  facet normal -1 -0 0
    outer loop
      vertex -6 2.515 3.75
      vertex -6 -2.515 -3.75
      vertex -6 -2.515 3.75
    endloop
  endfacet
endsolid OpenSCAD_Model
