solid OpenSCAD_Model
  facet normal -0.890943 -0.454114 -0
    outer loop
      vertex -14.8806 -4.74236 -28.0352
      vertex -14.9694 -4.56814 -85
      vertex -14.8806 -4.74236 -85
    endloop
  endfacet
  facet normal -0.890943 -0.454114 0
    outer loop
      vertex -14.9694 -4.56814 -85
      vertex -14.8806 -4.74236 -28.0352
      vertex -14.9694 -4.56814 -27.5566
    endloop
  endfacet
  facet normal -0.890943 0.454114 0
    outer loop
      vertex -14.9694 4.56814 -85
      vertex -14.8806 4.74236 -5
      vertex -14.8806 4.74236 -85
    endloop
  endfacet
  facet normal -0.890943 0.454114 0
    outer loop
      vertex -14.8806 4.74236 -5
      vertex -14.9694 4.56814 -85
      vertex -14.9694 4.56814 -5
    endloop
  endfacet
  facet normal 0 -1 0
    outer loop
      vertex -14.375 -5 -28.7431
      vertex -9.375 -5 -55
      vertex 14.375 -5 -28.7431
    endloop
  endfacet
  facet normal 0 -1 0
    outer loop
      vertex -14.375 -5 -28.7431
      vertex -9.56814 -5 -55.0306
      vertex -9.375 -5 -55
    endloop
  endfacet
  facet normal 0 -1 0
    outer loop
      vertex -14.375 -5 -28.7431
      vertex -9.74236 -5 -55.1194
      vertex -9.56814 -5 -55.0306
    endloop
  endfacet
  facet normal 0 -1 0
    outer loop
      vertex -14.375 -5 -28.7431
      vertex -9.88064 -5 -55.2576
      vertex -9.74236 -5 -55.1194
    endloop
  endfacet
  facet normal 0 -1 0
    outer loop
      vertex -14.375 -5 -28.7431
      vertex -9.96941 -5 -55.4319
      vertex -9.88064 -5 -55.2576
    endloop
  endfacet
  facet normal 0 -1 0
    outer loop
      vertex -14.375 -5 -28.7431
      vertex -10 -5 -55.625
      vertex -9.96941 -5 -55.4319
    endloop
  endfacet
  facet normal 0 -1 0
    outer loop
      vertex -14.375 -5 -85
      vertex -10 -5 -55.625
      vertex -14.375 -5 -28.7431
    endloop
  endfacet
  facet normal 0 -1 -0
    outer loop
      vertex -9.375 -5 -65
      vertex -14.375 -5 -85
      vertex 9.375 -5 -65
    endloop
  endfacet
  facet normal 0 -1 -0
    outer loop
      vertex -9.56814 -5 -64.9694
      vertex -14.375 -5 -85
      vertex -9.375 -5 -65
    endloop
  endfacet
  facet normal 0 -1 -0
    outer loop
      vertex -9.74236 -5 -64.8806
      vertex -14.375 -5 -85
      vertex -9.56814 -5 -64.9694
    endloop
  endfacet
  facet normal 0 -1 -0
    outer loop
      vertex -9.88064 -5 -64.7424
      vertex -14.375 -5 -85
      vertex -9.74236 -5 -64.8806
    endloop
  endfacet
  facet normal 0 -1 -0
    outer loop
      vertex -9.96941 -5 -64.5681
      vertex -14.375 -5 -85
      vertex -9.88064 -5 -64.7424
    endloop
  endfacet
  facet normal 0 -1 -0
    outer loop
      vertex -10 -5 -64.375
      vertex -14.375 -5 -85
      vertex -9.96941 -5 -64.5681
    endloop
  endfacet
  facet normal 0 -1 -0
    outer loop
      vertex -10 -5 -55.625
      vertex -14.375 -5 -85
      vertex -10 -5 -64.375
    endloop
  endfacet
  facet normal 0 -1 0
    outer loop
      vertex 9.375 -5 -55
      vertex 14.375 -5 -28.7431
      vertex -9.375 -5 -55
    endloop
  endfacet
  facet normal 0 -1 0
    outer loop
      vertex 9.56814 -5 -55.0306
      vertex 14.375 -5 -28.7431
      vertex 9.375 -5 -55
    endloop
  endfacet
  facet normal 0 -1 0
    outer loop
      vertex 9.74236 -5 -55.1194
      vertex 14.375 -5 -28.7431
      vertex 9.56814 -5 -55.0306
    endloop
  endfacet
  facet normal 0 -1 0
    outer loop
      vertex 9.88064 -5 -55.2576
      vertex 14.375 -5 -28.7431
      vertex 9.74236 -5 -55.1194
    endloop
  endfacet
  facet normal 0 -1 0
    outer loop
      vertex 9.96941 -5 -55.4319
      vertex 14.375 -5 -28.7431
      vertex 9.88064 -5 -55.2576
    endloop
  endfacet
  facet normal 0 -1 0
    outer loop
      vertex 10 -5 -55.625
      vertex 14.375 -5 -28.7431
      vertex 9.96941 -5 -55.4319
    endloop
  endfacet
  facet normal 0 -1 0
    outer loop
      vertex 14.375 -5 -85
      vertex 10 -5 -55.625
      vertex 10 -5 -64.375
    endloop
  endfacet
  facet normal 0 -1 0
    outer loop
      vertex 14.375 -5 -85
      vertex 9.375 -5 -65
      vertex -14.375 -5 -85
    endloop
  endfacet
  facet normal 0 -1 0
    outer loop
      vertex 9.375 -5 -65
      vertex 14.375 -5 -85
      vertex 9.56814 -5 -64.9694
    endloop
  endfacet
  facet normal 0 -1 0
    outer loop
      vertex 10 -5 -55.625
      vertex 14.375 -5 -85
      vertex 14.375 -5 -28.7431
    endloop
  endfacet
  facet normal 0 -1 0
    outer loop
      vertex 9.96941 -5 -64.5681
      vertex 14.375 -5 -85
      vertex 10 -5 -64.375
    endloop
  endfacet
  facet normal 0 -1 0
    outer loop
      vertex 9.88064 -5 -64.7424
      vertex 14.375 -5 -85
      vertex 9.96941 -5 -64.5681
    endloop
  endfacet
  facet normal 0 -1 0
    outer loop
      vertex 9.74236 -5 -64.8806
      vertex 14.375 -5 -85
      vertex 9.88064 -5 -64.7424
    endloop
  endfacet
  facet normal 0 -1 0
    outer loop
      vertex 9.56814 -5 -64.9694
      vertex 14.375 -5 -85
      vertex 9.74236 -5 -64.8806
    endloop
  endfacet
  facet normal -0.987681 -0.156483 -0
    outer loop
      vertex -14.9694 -4.56814 -27.5566
      vertex -15 -4.375 -85
      vertex -14.9694 -4.56814 -85
    endloop
  endfacet
  facet normal -0.987681 -0.156483 0
    outer loop
      vertex -15 -4.375 -85
      vertex -14.9694 -4.56814 -27.5566
      vertex -15 -4.375 -27.0259
    endloop
  endfacet
  facet normal 0.987681 0.156483 0
    outer loop
      vertex 15 4.375 -5
      vertex 14.9694 4.56814 -85
      vertex 14.9694 4.56814 -5
    endloop
  endfacet
  facet normal 0.987681 0.156483 0
    outer loop
      vertex 14.9694 4.56814 -85
      vertex 15 4.375 -5
      vertex 15 4.375 -85
    endloop
  endfacet
  facet normal -0.453827 0.89109 0
    outer loop
      vertex -14.5681 4.96941 -85
      vertex -14.7424 4.88064 -5
      vertex -14.5681 4.96941 -5
    endloop
  endfacet
  facet normal -0.453827 0.89109 0
    outer loop
      vertex -14.7424 4.88064 -5
      vertex -14.5681 4.96941 -85
      vertex -14.7424 4.88064 -85
    endloop
  endfacet
  facet normal 0.707311 -0.706902 0
    outer loop
      vertex 14.7424 -4.88064 -28.4151
      vertex 14.8806 -4.74236 -85
      vertex 14.8806 -4.74236 -28.0352
    endloop
  endfacet
  facet normal 0.707311 -0.706902 0
    outer loop
      vertex 14.8806 -4.74236 -85
      vertex 14.7424 -4.88064 -28.4151
      vertex 14.7424 -4.88064 -85
    endloop
  endfacet
  facet normal 1 0 0
    outer loop
      vertex 15 -4.375 -27.0259
      vertex 15 4.375 -5
      vertex 15 3.64178 -5
    endloop
  endfacet
  facet normal 1 0 0
    outer loop
      vertex 15 4.375 -5
      vertex 15 -4.375 -27.0259
      vertex 15 4.375 -85
    endloop
  endfacet
  facet normal 1 0 0
    outer loop
      vertex 15 4.375 -85
      vertex 15 -4.375 -27.0259
      vertex 15 -4.375 -85
    endloop
  endfacet
  facet normal 0.453827 0.89109 -0
    outer loop
      vertex 14.7424 4.88064 -85
      vertex 14.5681 4.96941 -5
      vertex 14.7424 4.88064 -5
    endloop
  endfacet
  facet normal 0.453827 0.89109 0
    outer loop
      vertex 14.5681 4.96941 -5
      vertex 14.7424 4.88064 -85
      vertex 14.5681 4.96941 -85
    endloop
  endfacet
  facet normal 0 1 0
    outer loop
      vertex 14.375 5 -5
      vertex 9.375 5 -55
      vertex -14.375 5 -5
    endloop
  endfacet
  facet normal 0 1 0
    outer loop
      vertex 14.375 5 -5
      vertex 9.56814 5 -55.0306
      vertex 9.375 5 -55
    endloop
  endfacet
  facet normal 0 1 0
    outer loop
      vertex 14.375 5 -5
      vertex 9.74236 5 -55.1194
      vertex 9.56814 5 -55.0306
    endloop
  endfacet
  facet normal 0 1 0
    outer loop
      vertex 14.375 5 -5
      vertex 9.88064 5 -55.2576
      vertex 9.74236 5 -55.1194
    endloop
  endfacet
  facet normal 0 1 0
    outer loop
      vertex 14.375 5 -5
      vertex 9.96941 5 -55.4319
      vertex 9.88064 5 -55.2576
    endloop
  endfacet
  facet normal 0 1 0
    outer loop
      vertex 14.375 5 -5
      vertex 10 5 -55.625
      vertex 9.96941 5 -55.4319
    endloop
  endfacet
  facet normal 0 1 -0
    outer loop
      vertex 14.375 5 -85
      vertex 10 5 -55.625
      vertex 14.375 5 -5
    endloop
  endfacet
  facet normal 0 1 0
    outer loop
      vertex 9.375 5 -65
      vertex 14.375 5 -85
      vertex -9.375 5 -65
    endloop
  endfacet
  facet normal 0 1 0
    outer loop
      vertex 9.56814 5 -64.9694
      vertex 14.375 5 -85
      vertex 9.375 5 -65
    endloop
  endfacet
  facet normal 0 1 0
    outer loop
      vertex 9.74236 5 -64.8806
      vertex 14.375 5 -85
      vertex 9.56814 5 -64.9694
    endloop
  endfacet
  facet normal 0 1 0
    outer loop
      vertex 9.88064 5 -64.7424
      vertex 14.375 5 -85
      vertex 9.74236 5 -64.8806
    endloop
  endfacet
  facet normal 0 1 0
    outer loop
      vertex 9.96941 5 -64.5681
      vertex 14.375 5 -85
      vertex 9.88064 5 -64.7424
    endloop
  endfacet
  facet normal 0 1 0
    outer loop
      vertex 10 5 -64.375
      vertex 14.375 5 -85
      vertex 9.96941 5 -64.5681
    endloop
  endfacet
  facet normal 0 1 0
    outer loop
      vertex 10 5 -55.625
      vertex 14.375 5 -85
      vertex 10 5 -64.375
    endloop
  endfacet
  facet normal 0 1 -0
    outer loop
      vertex -9.375 5 -55
      vertex -14.375 5 -5
      vertex 9.375 5 -55
    endloop
  endfacet
  facet normal 0 1 -0
    outer loop
      vertex -9.56814 5 -55.0306
      vertex -14.375 5 -5
      vertex -9.375 5 -55
    endloop
  endfacet
  facet normal 0 1 -0
    outer loop
      vertex -9.74236 5 -55.1194
      vertex -14.375 5 -5
      vertex -9.56814 5 -55.0306
    endloop
  endfacet
  facet normal 0 1 -0
    outer loop
      vertex -9.88064 5 -55.2576
      vertex -14.375 5 -5
      vertex -9.74236 5 -55.1194
    endloop
  endfacet
  facet normal 0 1 -0
    outer loop
      vertex -9.96941 5 -55.4319
      vertex -14.375 5 -5
      vertex -9.88064 5 -55.2576
    endloop
  endfacet
  facet normal 0 1 -0
    outer loop
      vertex -10 5 -55.625
      vertex -14.375 5 -5
      vertex -9.96941 5 -55.4319
    endloop
  endfacet
  facet normal 0 1 0
    outer loop
      vertex -14.375 5 -85
      vertex -10 5 -55.625
      vertex -10 5 -64.375
    endloop
  endfacet
  facet normal 0 1 0
    outer loop
      vertex -14.375 5 -85
      vertex -9.375 5 -65
      vertex 14.375 5 -85
    endloop
  endfacet
  facet normal 0 1 0
    outer loop
      vertex -9.375 5 -65
      vertex -14.375 5 -85
      vertex -9.56814 5 -64.9694
    endloop
  endfacet
  facet normal 0 1 0
    outer loop
      vertex -10 5 -55.625
      vertex -14.375 5 -85
      vertex -14.375 5 -5
    endloop
  endfacet
  facet normal 0 1 0
    outer loop
      vertex -9.96941 5 -64.5681
      vertex -14.375 5 -85
      vertex -10 5 -64.375
    endloop
  endfacet
  facet normal 0 1 0
    outer loop
      vertex -9.88064 5 -64.7424
      vertex -14.375 5 -85
      vertex -9.96941 5 -64.5681
    endloop
  endfacet
  facet normal 0 1 0
    outer loop
      vertex -9.74236 5 -64.8806
      vertex -14.375 5 -85
      vertex -9.88064 5 -64.7424
    endloop
  endfacet
  facet normal 0 1 0
    outer loop
      vertex -9.56814 5 -64.9694
      vertex -14.375 5 -85
      vertex -9.74236 5 -64.8806
    endloop
  endfacet
  facet normal -0.707311 -0.706902 -0
    outer loop
      vertex -14.7424 -4.88064 -28.4151
      vertex -14.8806 -4.74236 -85
      vertex -14.7424 -4.88064 -85
    endloop
  endfacet
  facet normal -0.707311 -0.706902 0
    outer loop
      vertex -14.8806 -4.74236 -85
      vertex -14.7424 -4.88064 -28.4151
      vertex -14.8806 -4.74236 -28.0352
    endloop
  endfacet
  facet normal 0 0 -1
    outer loop
      vertex 14.375 -5 -85
      vertex 15 -4.375 -85
      vertex 14.9694 -4.56814 -85
    endloop
  endfacet
  facet normal -0 0 -1
    outer loop
      vertex 15 -4.375 -85
      vertex 14.375 -5 -85
      vertex 15 4.375 -85
    endloop
  endfacet
  facet normal 0 0 -1
    outer loop
      vertex 14.375 -5 -85
      vertex 14.9694 -4.56814 -85
      vertex 14.8806 -4.74236 -85
    endloop
  endfacet
  facet normal 0 0 -1
    outer loop
      vertex 14.375 5 -85
      vertex 15 4.375 -85
      vertex 14.375 -5 -85
    endloop
  endfacet
  facet normal 0 0 -1
    outer loop
      vertex 14.375 -5 -85
      vertex 14.8806 -4.74236 -85
      vertex 14.7424 -4.88064 -85
    endloop
  endfacet
  facet normal 0 0 -1
    outer loop
      vertex 15 4.375 -85
      vertex 14.375 5 -85
      vertex 14.9694 4.56814 -85
    endloop
  endfacet
  facet normal 0 0 -1
    outer loop
      vertex 14.375 -5 -85
      vertex 14.7424 -4.88064 -85
      vertex 14.5681 -4.96941 -85
    endloop
  endfacet
  facet normal 0 0 -1
    outer loop
      vertex 14.9694 4.56814 -85
      vertex 14.375 5 -85
      vertex 14.8806 4.74236 -85
    endloop
  endfacet
  facet normal 0 0 -1
    outer loop
      vertex 14.8806 4.74236 -85
      vertex 14.375 5 -85
      vertex 14.7424 4.88064 -85
    endloop
  endfacet
  facet normal 0 0 -1
    outer loop
      vertex 14.7424 4.88064 -85
      vertex 14.375 5 -85
      vertex 14.5681 4.96941 -85
    endloop
  endfacet
  facet normal 0 0 -1
    outer loop
      vertex -14.375 -5 -85
      vertex 14.375 5 -85
      vertex 14.375 -5 -85
    endloop
  endfacet
  facet normal 0 0 -1
    outer loop
      vertex -14.375 -5 -85
      vertex -14.375 5 -85
      vertex 14.375 5 -85
    endloop
  endfacet
  facet normal 0 0 -1
    outer loop
      vertex -15 -4.375 -85
      vertex -14.375 -5 -85
      vertex -14.5681 -4.96941 -85
    endloop
  endfacet
  facet normal 0 0 -1
    outer loop
      vertex -14.375 -5 -85
      vertex -15 -4.375 -85
      vertex -14.375 5 -85
    endloop
  endfacet
  facet normal 0 0 -1
    outer loop
      vertex -15 -4.375 -85
      vertex -14.5681 -4.96941 -85
      vertex -14.7424 -4.88064 -85
    endloop
  endfacet
  facet normal 0 0 -1
    outer loop
      vertex -15 4.375 -85
      vertex -14.375 5 -85
      vertex -15 -4.375 -85
    endloop
  endfacet
  facet normal 0 0 -1
    outer loop
      vertex -15 -4.375 -85
      vertex -14.7424 -4.88064 -85
      vertex -14.8806 -4.74236 -85
    endloop
  endfacet
  facet normal 0 0 -1
    outer loop
      vertex -14.375 5 -85
      vertex -15 4.375 -85
      vertex -14.5681 4.96941 -85
    endloop
  endfacet
  facet normal 0 0 -1
    outer loop
      vertex -15 -4.375 -85
      vertex -14.8806 -4.74236 -85
      vertex -14.9694 -4.56814 -85
    endloop
  endfacet
  facet normal 0 0 -1
    outer loop
      vertex -14.5681 4.96941 -85
      vertex -15 4.375 -85
      vertex -14.7424 4.88064 -85
    endloop
  endfacet
  facet normal 0 0 -1
    outer loop
      vertex -14.7424 4.88064 -85
      vertex -15 4.375 -85
      vertex -14.8806 4.74236 -85
    endloop
  endfacet
  facet normal 0 0 -1
    outer loop
      vertex -14.8806 4.74236 -85
      vertex -15 4.375 -85
      vertex -14.9694 4.56814 -85
    endloop
  endfacet
  facet normal -0.987681 0.156483 0
    outer loop
      vertex -15 4.375 -85
      vertex -14.9694 4.56814 -5
      vertex -14.9694 4.56814 -85
    endloop
  endfacet
  facet normal -0.987681 0.156483 0
    outer loop
      vertex -14.9694 4.56814 -5
      vertex -15 4.375 -85
      vertex -15 4.375 -5
    endloop
  endfacet
  facet normal -1 0 0
    outer loop
      vertex -15 -4.375 -27.0259
      vertex -15 4.375 -5
      vertex -15 4.375 -85
    endloop
  endfacet
  facet normal -1 0 0
    outer loop
      vertex -15 -4.375 -27.0259
      vertex -15 4.375 -85
      vertex -15 -4.375 -85
    endloop
  endfacet
  facet normal -1 -0 0
    outer loop
      vertex -15 4.375 -5
      vertex -15 -4.375 -27.0259
      vertex -15 3.64178 -5
    endloop
  endfacet
  facet normal 0.156464 -0.987684 0
    outer loop
      vertex 14.5681 -4.96941 -85
      vertex 14.375 -5 -28.7431
      vertex 14.375 -5 -85
    endloop
  endfacet
  facet normal 0.156464 -0.987684 0
    outer loop
      vertex 14.375 -5 -28.7431
      vertex 14.5681 -4.96941 -85
      vertex 14.5681 -4.96941 -28.659
    endloop
  endfacet
  facet normal 0.890943 -0.454114 0
    outer loop
      vertex 14.8806 -4.74236 -28.0352
      vertex 14.9694 -4.56814 -85
      vertex 14.9694 -4.56814 -27.5566
    endloop
  endfacet
  facet normal 0.890943 -0.454114 0
    outer loop
      vertex 14.9694 -4.56814 -85
      vertex 14.8806 -4.74236 -28.0352
      vertex 14.8806 -4.74236 -85
    endloop
  endfacet
  facet normal 0.453827 -0.89109 0
    outer loop
      vertex 14.7424 -4.88064 -85
      vertex 14.5681 -4.96941 -28.659
      vertex 14.5681 -4.96941 -85
    endloop
  endfacet
  facet normal 0.453827 -0.89109 0
    outer loop
      vertex 14.5681 -4.96941 -28.659
      vertex 14.7424 -4.88064 -85
      vertex 14.7424 -4.88064 -28.4151
    endloop
  endfacet
  facet normal 0.156464 0.987684 -0
    outer loop
      vertex 14.5681 4.96941 -85
      vertex 14.375 5 -5
      vertex 14.5681 4.96941 -5
    endloop
  endfacet
  facet normal 0.156464 0.987684 0
    outer loop
      vertex 14.375 5 -5
      vertex 14.5681 4.96941 -85
      vertex 14.375 5 -85
    endloop
  endfacet
  facet normal -0.156464 -0.987684 0
    outer loop
      vertex -14.5681 -4.96941 -85
      vertex -14.375 -5 -28.7431
      vertex -14.5681 -4.96941 -28.659
    endloop
  endfacet
  facet normal -0.156464 -0.987684 -0
    outer loop
      vertex -14.375 -5 -28.7431
      vertex -14.5681 -4.96941 -85
      vertex -14.375 -5 -85
    endloop
  endfacet
  facet normal 0.890943 0.454114 0
    outer loop
      vertex 14.9694 4.56814 -5
      vertex 14.8806 4.74236 -85
      vertex 14.8806 4.74236 -5
    endloop
  endfacet
  facet normal 0.890943 0.454114 0
    outer loop
      vertex 14.8806 4.74236 -85
      vertex 14.9694 4.56814 -5
      vertex 14.9694 4.56814 -85
    endloop
  endfacet
  facet normal -0.156464 0.987684 0
    outer loop
      vertex -14.375 5 -85
      vertex -14.5681 4.96941 -5
      vertex -14.375 5 -5
    endloop
  endfacet
  facet normal -0.156464 0.987684 0
    outer loop
      vertex -14.5681 4.96941 -5
      vertex -14.375 5 -85
      vertex -14.5681 4.96941 -85
    endloop
  endfacet
  facet normal -0.453827 -0.89109 0
    outer loop
      vertex -14.7424 -4.88064 -85
      vertex -14.5681 -4.96941 -28.659
      vertex -14.7424 -4.88064 -28.4151
    endloop
  endfacet
  facet normal -0.453827 -0.89109 -0
    outer loop
      vertex -14.5681 -4.96941 -28.659
      vertex -14.7424 -4.88064 -85
      vertex -14.5681 -4.96941 -85
    endloop
  endfacet
  facet normal 0 0 1
    outer loop
      vertex 14.375 5 -5
      vertex 15 4.375 -5
      vertex 14.9694 4.56814 -5
    endloop
  endfacet
  facet normal 0 0 1
    outer loop
      vertex 14.375 5 -5
      vertex 14.9694 4.56814 -5
      vertex 14.8806 4.74236 -5
    endloop
  endfacet
  facet normal 0 0 1
    outer loop
      vertex 14.375 5 -5
      vertex 14.8806 4.74236 -5
      vertex 14.7424 4.88064 -5
    endloop
  endfacet
  facet normal 0 0 1
    outer loop
      vertex 14.375 5 -5
      vertex 14.7424 4.88064 -5
      vertex 14.5681 4.96941 -5
    endloop
  endfacet
  facet normal 0 0 1
    outer loop
      vertex 15 4.375 -5
      vertex 14.375 5 -5
      vertex 15 3.64178 -5
    endloop
  endfacet
  facet normal -0 0 1
    outer loop
      vertex -14.375 5 -5
      vertex 15 3.64178 -5
      vertex 14.375 5 -5
    endloop
  endfacet
  facet normal 0 0 1
    outer loop
      vertex -15 4.375 -5
      vertex -14.375 5 -5
      vertex -14.5681 4.96941 -5
    endloop
  endfacet
  facet normal 0 0 1
    outer loop
      vertex -15 4.375 -5
      vertex -14.5681 4.96941 -5
      vertex -14.7424 4.88064 -5
    endloop
  endfacet
  facet normal 0 0 1
    outer loop
      vertex -15 4.375 -5
      vertex -14.7424 4.88064 -5
      vertex -14.8806 4.74236 -5
    endloop
  endfacet
  facet normal 0 0 1
    outer loop
      vertex -15 4.375 -5
      vertex -14.8806 4.74236 -5
      vertex -14.9694 4.56814 -5
    endloop
  endfacet
  facet normal 0 0 1
    outer loop
      vertex -14.375 5 -5
      vertex -15 4.375 -5
      vertex -15 3.64178 -5
    endloop
  endfacet
  facet normal 0 0 1
    outer loop
      vertex -14.375 5 -5
      vertex -15 3.64178 -5
      vertex 15 3.64178 -5
    endloop
  endfacet
  facet normal 0.707311 0.706902 0
    outer loop
      vertex 14.8806 4.74236 -5
      vertex 14.7424 4.88064 -85
      vertex 14.7424 4.88064 -5
    endloop
  endfacet
  facet normal 0.707311 0.706902 0
    outer loop
      vertex 14.7424 4.88064 -85
      vertex 14.8806 4.74236 -5
      vertex 14.8806 4.74236 -85
    endloop
  endfacet
  facet normal -0.707311 0.706902 0
    outer loop
      vertex -14.8806 4.74236 -85
      vertex -14.7424 4.88064 -5
      vertex -14.7424 4.88064 -85
    endloop
  endfacet
  facet normal -0.707311 0.706902 0
    outer loop
      vertex -14.7424 4.88064 -5
      vertex -14.8806 4.74236 -85
      vertex -14.8806 4.74236 -5
    endloop
  endfacet
  facet normal 0.987681 -0.156483 0
    outer loop
      vertex 14.9694 -4.56814 -27.5566
      vertex 15 -4.375 -85
      vertex 15 -4.375 -27.0259
    endloop
  endfacet
  facet normal 0.987681 -0.156483 0
    outer loop
      vertex 15 -4.375 -85
      vertex 14.9694 -4.56814 -27.5566
      vertex 14.9694 -4.56814 -85
    endloop
  endfacet
  facet normal 0 -0.939693 0.34202
    outer loop
      vertex -15 3.64178 -5
      vertex -2.5 1.69301 -10.3542
      vertex 15 3.64178 -5
    endloop
  endfacet
  facet normal 1.03528e-07 -0.939693 0.34202
    outer loop
      vertex -15 -4.375 -27.0259
      vertex -2.5 1.69301 -10.3542
      vertex -15 3.64178 -5
    endloop
  endfacet
  facet normal 2.19328e-06 -0.939694 0.342016
    outer loop
      vertex -14.375 -5 -28.7431
      vertex -2.5 -2.75325 -22.5702
      vertex -15 -4.375 -27.0259
    endloop
  endfacet
  facet normal 5.9888e-07 -0.939693 0.34202
    outer loop
      vertex -2.5 1.69301 -10.3542
      vertex -15 -4.375 -27.0259
      vertex -2.5 -2.75325 -22.5702
    endloop
  endfacet
  facet normal 0 -0.939693 0.34202
    outer loop
      vertex 2.5 1.69301 -10.3542
      vertex 15 3.64178 -5
      vertex -2.5 1.69301 -10.3542
    endloop
  endfacet
  facet normal -5.9888e-07 -0.939693 0.34202
    outer loop
      vertex 15 -4.375 -27.0259
      vertex 2.5 1.69301 -10.3542
      vertex 2.5 -2.75325 -22.5702
    endloop
  endfacet
  facet normal -1.03528e-07 -0.939693 0.34202
    outer loop
      vertex 2.5 1.69301 -10.3542
      vertex 15 -4.375 -27.0259
      vertex 15 3.64178 -5
    endloop
  endfacet
  facet normal 0 -0.939693 0.34202
    outer loop
      vertex -2.5 -2.75325 -22.5702
      vertex -14.375 -5 -28.7431
      vertex 2.5 -2.75325 -22.5702
    endloop
  endfacet
  facet normal -9.25495e-05 -0.939705 0.341986
    outer loop
      vertex -14.375 -5 -28.7431
      vertex -15 -4.375 -27.0259
      vertex -14.9694 -4.56814 -27.5566
    endloop
  endfacet
  facet normal 0 -0.939693 0.34202
    outer loop
      vertex 14.375 -5 -28.7431
      vertex 2.5 -2.75325 -22.5702
      vertex -14.375 -5 -28.7431
    endloop
  endfacet
  facet normal 0.000125035 -0.93967 0.342082
    outer loop
      vertex -14.375 -5 -28.7431
      vertex -14.9694 -4.56814 -27.5566
      vertex -14.8806 -4.74236 -28.0352
    endloop
  endfacet
  facet normal -2.19328e-06 -0.939694 0.342016
    outer loop
      vertex 2.5 -2.75325 -22.5702
      vertex 14.375 -5 -28.7431
      vertex 15 -4.375 -27.0259
    endloop
  endfacet
  facet normal 0.000109436 -0.939674 0.342072
    outer loop
      vertex -14.375 -5 -28.7431
      vertex -14.8806 -4.74236 -28.0352
      vertex -14.7424 -4.88064 -28.4151
    endloop
  endfacet
  facet normal 9.25495e-05 -0.939705 0.341986
    outer loop
      vertex 15 -4.375 -27.0259
      vertex 14.375 -5 -28.7431
      vertex 14.9694 -4.56814 -27.5566
    endloop
  endfacet
  facet normal 0.000134873 -0.939665 0.342097
    outer loop
      vertex -14.375 -5 -28.7431
      vertex -14.7424 -4.88064 -28.4151
      vertex -14.5681 -4.96941 -28.659
    endloop
  endfacet
  facet normal -0.000125035 -0.93967 0.342082
    outer loop
      vertex 14.9694 -4.56814 -27.5566
      vertex 14.375 -5 -28.7431
      vertex 14.8806 -4.74236 -28.0352
    endloop
  endfacet
  facet normal -0.000109436 -0.939674 0.342072
    outer loop
      vertex 14.8806 -4.74236 -28.0352
      vertex 14.375 -5 -28.7431
      vertex 14.7424 -4.88064 -28.4151
    endloop
  endfacet
  facet normal -0.000134873 -0.939665 0.342097
    outer loop
      vertex 14.7424 -4.88064 -28.4151
      vertex 14.375 -5 -28.7431
      vertex 14.5681 -4.96941 -28.659
    endloop
  endfacet
  facet normal -1 0 0
    outer loop
      vertex -2.5 -2.75325 -22.5702
      vertex -2.5 -0.986407 -9.37897
      vertex -2.5 1.69301 -10.3542
    endloop
  endfacet
  facet normal -1 0 0
    outer loop
      vertex -2.5 -0.986407 -9.37897
      vertex -2.5 -2.75325 -22.5702
      vertex -2.5 -5.43267 -21.595
    endloop
  endfacet
  facet normal 0 -0.342011 -0.939696
    outer loop
      vertex -2.5 -5.43267 -21.595
      vertex 2.5 -2.75325 -22.5702
      vertex 2.5 -5.43267 -21.595
    endloop
  endfacet
  facet normal -0 -0.342011 -0.939696
    outer loop
      vertex 2.5 -2.75325 -22.5702
      vertex -2.5 -5.43267 -21.595
      vertex -2.5 -2.75325 -22.5702
    endloop
  endfacet
  facet normal 0 -0.939693 0.34202
    outer loop
      vertex -2.5 -5.43267 -21.595
      vertex 2.5 -0.986407 -9.37897
      vertex -2.5 -0.986407 -9.37897
    endloop
  endfacet
  facet normal 0 -0.939693 0.34202
    outer loop
      vertex 2.5 -0.986407 -9.37897
      vertex -2.5 -5.43267 -21.595
      vertex 2.5 -5.43267 -21.595
    endloop
  endfacet
  facet normal -0 0.342021 0.939692
    outer loop
      vertex -2.5 1.69301 -10.3542
      vertex 2.5 -0.986407 -9.37897
      vertex 2.5 1.69301 -10.3542
    endloop
  endfacet
  facet normal 0 0.342021 0.939692
    outer loop
      vertex 2.5 -0.986407 -9.37897
      vertex -2.5 1.69301 -10.3542
      vertex -2.5 -0.986407 -9.37897
    endloop
  endfacet
  facet normal 1 0 0
    outer loop
      vertex 2.5 -0.986407 -9.37897
      vertex 2.5 -2.75325 -22.5702
      vertex 2.5 1.69301 -10.3542
    endloop
  endfacet
  facet normal 1 0 -0
    outer loop
      vertex 2.5 -2.75325 -22.5702
      vertex 2.5 -0.986407 -9.37897
      vertex 2.5 -5.43267 -21.595
    endloop
  endfacet
  facet normal -0.706902 0 -0.707311
    outer loop
      vertex 9.88064 -5 -55.2576
      vertex 9.74236 5 -55.1194
      vertex 9.88064 5 -55.2576
    endloop
  endfacet
  facet normal -0.706902 -0 -0.707311
    outer loop
      vertex 9.74236 5 -55.1194
      vertex 9.88064 -5 -55.2576
      vertex 9.74236 -5 -55.1194
    endloop
  endfacet
  facet normal -0 0 1
    outer loop
      vertex -9.375 5 -65
      vertex 9.375 -5 -65
      vertex 9.375 5 -65
    endloop
  endfacet
  facet normal 0 0 1
    outer loop
      vertex 9.375 -5 -65
      vertex -9.375 5 -65
      vertex -9.375 -5 -65
    endloop
  endfacet
  facet normal 0.987684 -0 0.156464
    outer loop
      vertex -10 -5 -64.375
      vertex -9.96941 5 -64.5681
      vertex -10 5 -64.375
    endloop
  endfacet
  facet normal 0.987684 0 0.156464
    outer loop
      vertex -9.96941 5 -64.5681
      vertex -10 -5 -64.375
      vertex -9.96941 -5 -64.5681
    endloop
  endfacet
  facet normal 1 -0 0
    outer loop
      vertex -10 -5 -55.625
      vertex -10 5 -64.375
      vertex -10 5 -55.625
    endloop
  endfacet
  facet normal 1 0 0
    outer loop
      vertex -10 5 -64.375
      vertex -10 -5 -55.625
      vertex -10 -5 -64.375
    endloop
  endfacet
  facet normal -0.987684 0 -0.156464
    outer loop
      vertex 10 -5 -55.625
      vertex 9.96941 5 -55.4319
      vertex 10 5 -55.625
    endloop
  endfacet
  facet normal -0.987684 -0 -0.156464
    outer loop
      vertex 9.96941 5 -55.4319
      vertex 10 -5 -55.625
      vertex 9.96941 -5 -55.4319
    endloop
  endfacet
  facet normal 0.156483 0 -0.987681
    outer loop
      vertex -9.56814 -5 -55.0306
      vertex -9.375 5 -55
      vertex -9.375 -5 -55
    endloop
  endfacet
  facet normal 0.156483 0 -0.987681
    outer loop
      vertex -9.375 5 -55
      vertex -9.56814 -5 -55.0306
      vertex -9.56814 5 -55.0306
    endloop
  endfacet
  facet normal -1 0 0
    outer loop
      vertex 10 -5 -64.375
      vertex 10 5 -55.625
      vertex 10 5 -64.375
    endloop
  endfacet
  facet normal -1 -0 0
    outer loop
      vertex 10 5 -55.625
      vertex 10 -5 -64.375
      vertex 10 -5 -55.625
    endloop
  endfacet
  facet normal -0.706902 0 0.707311
    outer loop
      vertex 9.74236 -5 -64.8806
      vertex 9.88064 5 -64.7424
      vertex 9.74236 5 -64.8806
    endloop
  endfacet
  facet normal -0.706902 0 0.707311
    outer loop
      vertex 9.88064 5 -64.7424
      vertex 9.74236 -5 -64.8806
      vertex 9.88064 -5 -64.7424
    endloop
  endfacet
  facet normal 0 0 -1
    outer loop
      vertex -9.375 -5 -55
      vertex 9.375 5 -55
      vertex 9.375 -5 -55
    endloop
  endfacet
  facet normal -0 0 -1
    outer loop
      vertex 9.375 5 -55
      vertex -9.375 -5 -55
      vertex -9.375 5 -55
    endloop
  endfacet
  facet normal 0.706902 -0 0.707311
    outer loop
      vertex -9.88064 -5 -64.7424
      vertex -9.74236 5 -64.8806
      vertex -9.88064 5 -64.7424
    endloop
  endfacet
  facet normal 0.706902 0 0.707311
    outer loop
      vertex -9.74236 5 -64.8806
      vertex -9.88064 -5 -64.7424
      vertex -9.74236 -5 -64.8806
    endloop
  endfacet
  facet normal -0.89109 0 0.453827
    outer loop
      vertex 9.88064 -5 -64.7424
      vertex 9.96941 5 -64.5681
      vertex 9.88064 5 -64.7424
    endloop
  endfacet
  facet normal -0.89109 0 0.453827
    outer loop
      vertex 9.96941 5 -64.5681
      vertex 9.88064 -5 -64.7424
      vertex 9.96941 -5 -64.5681
    endloop
  endfacet
  facet normal -0.156483 0 -0.987681
    outer loop
      vertex 9.375 -5 -55
      vertex 9.56814 5 -55.0306
      vertex 9.56814 -5 -55.0306
    endloop
  endfacet
  facet normal -0.156483 0 -0.987681
    outer loop
      vertex 9.56814 5 -55.0306
      vertex 9.375 -5 -55
      vertex 9.375 5 -55
    endloop
  endfacet
  facet normal 0.454114 0 -0.890943
    outer loop
      vertex -9.74236 -5 -55.1194
      vertex -9.56814 5 -55.0306
      vertex -9.56814 -5 -55.0306
    endloop
  endfacet
  facet normal 0.454114 0 -0.890943
    outer loop
      vertex -9.56814 5 -55.0306
      vertex -9.74236 -5 -55.1194
      vertex -9.74236 5 -55.1194
    endloop
  endfacet
  facet normal 0.89109 -0 0.453827
    outer loop
      vertex -9.96941 -5 -64.5681
      vertex -9.88064 5 -64.7424
      vertex -9.96941 5 -64.5681
    endloop
  endfacet
  facet normal 0.89109 0 0.453827
    outer loop
      vertex -9.88064 5 -64.7424
      vertex -9.96941 -5 -64.5681
      vertex -9.88064 -5 -64.7424
    endloop
  endfacet
  facet normal -0.987684 0 0.156464
    outer loop
      vertex 9.96941 -5 -64.5681
      vertex 10 5 -64.375
      vertex 9.96941 5 -64.5681
    endloop
  endfacet
  facet normal -0.987684 0 0.156464
    outer loop
      vertex 10 5 -64.375
      vertex 9.96941 -5 -64.5681
      vertex 10 -5 -64.375
    endloop
  endfacet
  facet normal -0.454114 0 0.890943
    outer loop
      vertex 9.56814 5 -64.9694
      vertex 9.74236 -5 -64.8806
      vertex 9.74236 5 -64.8806
    endloop
  endfacet
  facet normal -0.454114 0 0.890943
    outer loop
      vertex 9.74236 -5 -64.8806
      vertex 9.56814 5 -64.9694
      vertex 9.56814 -5 -64.9694
    endloop
  endfacet
  facet normal 0.156483 0 0.987681
    outer loop
      vertex -9.56814 5 -64.9694
      vertex -9.375 -5 -65
      vertex -9.375 5 -65
    endloop
  endfacet
  facet normal 0.156483 0 0.987681
    outer loop
      vertex -9.375 -5 -65
      vertex -9.56814 5 -64.9694
      vertex -9.56814 -5 -64.9694
    endloop
  endfacet
  facet normal 0.987684 0 -0.156464
    outer loop
      vertex -9.96941 -5 -55.4319
      vertex -10 5 -55.625
      vertex -9.96941 5 -55.4319
    endloop
  endfacet
  facet normal 0.987684 0 -0.156464
    outer loop
      vertex -10 5 -55.625
      vertex -9.96941 -5 -55.4319
      vertex -10 -5 -55.625
    endloop
  endfacet
  facet normal 0.454114 0 0.890943
    outer loop
      vertex -9.74236 5 -64.8806
      vertex -9.56814 -5 -64.9694
      vertex -9.56814 5 -64.9694
    endloop
  endfacet
  facet normal 0.454114 0 0.890943
    outer loop
      vertex -9.56814 -5 -64.9694
      vertex -9.74236 5 -64.8806
      vertex -9.74236 -5 -64.8806
    endloop
  endfacet
  facet normal 0.706902 0 -0.707311
    outer loop
      vertex -9.74236 -5 -55.1194
      vertex -9.88064 5 -55.2576
      vertex -9.74236 5 -55.1194
    endloop
  endfacet
  facet normal 0.706902 0 -0.707311
    outer loop
      vertex -9.88064 5 -55.2576
      vertex -9.74236 -5 -55.1194
      vertex -9.88064 -5 -55.2576
    endloop
  endfacet
  facet normal -0.89109 0 -0.453827
    outer loop
      vertex 9.96941 -5 -55.4319
      vertex 9.88064 5 -55.2576
      vertex 9.96941 5 -55.4319
    endloop
  endfacet
  facet normal -0.89109 -0 -0.453827
    outer loop
      vertex 9.88064 5 -55.2576
      vertex 9.96941 -5 -55.4319
      vertex 9.88064 -5 -55.2576
    endloop
  endfacet
  facet normal 0.89109 0 -0.453827
    outer loop
      vertex -9.88064 -5 -55.2576
      vertex -9.96941 5 -55.4319
      vertex -9.88064 5 -55.2576
    endloop
  endfacet
  facet normal 0.89109 0 -0.453827
    outer loop
      vertex -9.96941 5 -55.4319
      vertex -9.88064 -5 -55.2576
      vertex -9.96941 -5 -55.4319
    endloop
  endfacet
  facet normal -0.156483 0 0.987681
    outer loop
      vertex 9.375 5 -65
      vertex 9.56814 -5 -64.9694
      vertex 9.56814 5 -64.9694
    endloop
  endfacet
  facet normal -0.156483 0 0.987681
    outer loop
      vertex 9.56814 -5 -64.9694
      vertex 9.375 5 -65
      vertex 9.375 -5 -65
    endloop
  endfacet
  facet normal -0.454114 0 -0.890943
    outer loop
      vertex 9.56814 -5 -55.0306
      vertex 9.74236 5 -55.1194
      vertex 9.74236 -5 -55.1194
    endloop
  endfacet
  facet normal -0.454114 0 -0.890943
    outer loop
      vertex 9.74236 5 -55.1194
      vertex 9.56814 -5 -55.0306
      vertex 9.56814 5 -55.0306
    endloop
  endfacet
endsolid OpenSCAD_Model
