solid OpenSCAD_Model
  facet normal -0.890943 -0.454114 0
    outer loop
      vertex -14.8806 -4.74236 -40
      vertex -14.9694 -4.56814 30
      vertex -14.9694 -4.56814 -40
    endloop
  endfacet
  facet normal -0.890943 -0.454114 0
    outer loop
      vertex -14.9694 -4.56814 30
      vertex -14.8806 -4.74236 -40
      vertex -14.8806 -4.74236 30
    endloop
  endfacet
  facet normal -0.890943 0.454114 0
    outer loop
      vertex -14.9694 4.56814 -40
      vertex -14.8806 4.74236 30
      vertex -14.8806 4.74236 -40
    endloop
  endfacet
  facet normal -0.890943 0.454114 0
    outer loop
      vertex -14.8806 4.74236 30
      vertex -14.9694 4.56814 -40
      vertex -14.9694 4.56814 30
    endloop
  endfacet
  facet normal 0 -1 0
    outer loop
      vertex -10 -5 -12.5
      vertex -2.5 -5 30
      vertex -14.375 -5 30
    endloop
  endfacet
  facet normal 0 -1 -0
    outer loop
      vertex -2.5 -5 30
      vertex -10 -5 -12.5
      vertex 2.5 -5 30
    endloop
  endfacet
  facet normal 0 -1 0
    outer loop
      vertex 10 -5 -12.5
      vertex 2.5 -5 30
      vertex -10 -5 -12.5
    endloop
  endfacet
  facet normal 0 -1 0
    outer loop
      vertex -14.375 -5 -40
      vertex -10 -5 -12.5
      vertex -14.375 -5 30
    endloop
  endfacet
  facet normal 0 -1 -0
    outer loop
      vertex -10 -5 -22.5
      vertex -14.375 -5 -40
      vertex 10 -5 -22.5
    endloop
  endfacet
  facet normal 0 -1 -0
    outer loop
      vertex -10 -5 -12.5
      vertex -14.375 -5 -40
      vertex -10 -5 -22.5
    endloop
  endfacet
  facet normal 0 -1 0
    outer loop
      vertex -2.5 -5 30
      vertex 2.5 -5 35
      vertex -2.5 -5 35
    endloop
  endfacet
  facet normal 0 -1 -0
    outer loop
      vertex 2.5 -5 35
      vertex -2.5 -5 30
      vertex 2.5 -5 30
    endloop
  endfacet
  facet normal 0 -1 0
    outer loop
      vertex 2.5 -5 30
      vertex 10 -5 -12.5
      vertex 14.375 -5 30
    endloop
  endfacet
  facet normal 0 -1 0
    outer loop
      vertex 14.375 -5 -40
      vertex 10 -5 -12.5
      vertex 10 -5 -22.5
    endloop
  endfacet
  facet normal 0 -1 0
    outer loop
      vertex 10 -5 -12.5
      vertex 14.375 -5 -40
      vertex 14.375 -5 30
    endloop
  endfacet
  facet normal 0 -1 0
    outer loop
      vertex 14.375 -5 -40
      vertex 10 -5 -22.5
      vertex -14.375 -5 -40
    endloop
  endfacet
  facet normal -0.987681 -0.156483 0
    outer loop
      vertex -14.9694 -4.56814 -40
      vertex -15 -4.375 30
      vertex -15 -4.375 -40
    endloop
  endfacet
  facet normal -0.987681 -0.156483 0
    outer loop
      vertex -15 -4.375 30
      vertex -14.9694 -4.56814 -40
      vertex -14.9694 -4.56814 30
    endloop
  endfacet
  facet normal 0.987681 0.156483 0
    outer loop
      vertex 15 4.375 30
      vertex 14.9694 4.56814 -40
      vertex 14.9694 4.56814 30
    endloop
  endfacet
  facet normal 0.987681 0.156483 0
    outer loop
      vertex 14.9694 4.56814 -40
      vertex 15 4.375 30
      vertex 15 4.375 -40
    endloop
  endfacet
  facet normal -0.453827 0.89109 0
    outer loop
      vertex -14.5681 4.96941 -40
      vertex -14.7424 4.88064 30
      vertex -14.5681 4.96941 30
    endloop
  endfacet
  facet normal -0.453827 0.89109 0
    outer loop
      vertex -14.7424 4.88064 30
      vertex -14.5681 4.96941 -40
      vertex -14.7424 4.88064 -40
    endloop
  endfacet
  facet normal 0.707311 -0.706902 0
    outer loop
      vertex 14.7424 -4.88064 30
      vertex 14.8806 -4.74236 -40
      vertex 14.8806 -4.74236 30
    endloop
  endfacet
  facet normal 0.707311 -0.706902 0
    outer loop
      vertex 14.8806 -4.74236 -40
      vertex 14.7424 -4.88064 30
      vertex 14.7424 -4.88064 -40
    endloop
  endfacet
  facet normal 1 -0 0
    outer loop
      vertex 15 -4.375 30
      vertex 15 4.375 -40
      vertex 15 4.375 30
    endloop
  endfacet
  facet normal 1 0 0
    outer loop
      vertex 15 4.375 -40
      vertex 15 -4.375 30
      vertex 15 -4.375 -40
    endloop
  endfacet
  facet normal 0.453827 0.89109 -0
    outer loop
      vertex 14.7424 4.88064 -40
      vertex 14.5681 4.96941 30
      vertex 14.7424 4.88064 30
    endloop
  endfacet
  facet normal 0.453827 0.89109 0
    outer loop
      vertex 14.5681 4.96941 30
      vertex 14.7424 4.88064 -40
      vertex 14.5681 4.96941 -40
    endloop
  endfacet
  facet normal 0 1 0
    outer loop
      vertex 14.375 5 30
      vertex 2.5 5 25
      vertex 2.5 5 30
    endloop
  endfacet
  facet normal 0 1 0
    outer loop
      vertex 2.5 5 25
      vertex 10 5 -12.5
      vertex -2.5 5 25
    endloop
  endfacet
  facet normal 0 1 0
    outer loop
      vertex 14.375 5 30
      vertex 10 5 -12.5
      vertex 2.5 5 25
    endloop
  endfacet
  facet normal 0 1 -0
    outer loop
      vertex 14.375 5 -40
      vertex 10 5 -12.5
      vertex 14.375 5 30
    endloop
  endfacet
  facet normal 0 1 0
    outer loop
      vertex 10 5 -22.5
      vertex 14.375 5 -40
      vertex -10 5 -22.5
    endloop
  endfacet
  facet normal 0 1 0
    outer loop
      vertex 10 5 -12.5
      vertex 14.375 5 -40
      vertex 10 5 -22.5
    endloop
  endfacet
  facet normal 0 1 -0
    outer loop
      vertex -2.5 5 25
      vertex -14.375 5 30
      vertex -2.5 5 30
    endloop
  endfacet
  facet normal 0 1 0
    outer loop
      vertex -10 5 -12.5
      vertex -2.5 5 25
      vertex 10 5 -12.5
    endloop
  endfacet
  facet normal 0 1 0
    outer loop
      vertex -2.5 5 25
      vertex -10 5 -12.5
      vertex -14.375 5 30
    endloop
  endfacet
  facet normal 0 1 0
    outer loop
      vertex -14.375 5 -40
      vertex -10 5 -12.5
      vertex -10 5 -22.5
    endloop
  endfacet
  facet normal 0 1 0
    outer loop
      vertex -10 5 -12.5
      vertex -14.375 5 -40
      vertex -14.375 5 30
    endloop
  endfacet
  facet normal 0 1 0
    outer loop
      vertex -14.375 5 -40
      vertex -10 5 -22.5
      vertex 14.375 5 -40
    endloop
  endfacet
  facet normal -0.707311 -0.706902 0
    outer loop
      vertex -14.7424 -4.88064 -40
      vertex -14.8806 -4.74236 30
      vertex -14.8806 -4.74236 -40
    endloop
  endfacet
  facet normal -0.707311 -0.706902 0
    outer loop
      vertex -14.8806 -4.74236 30
      vertex -14.7424 -4.88064 -40
      vertex -14.7424 -4.88064 30
    endloop
  endfacet
  facet normal 0 0 -1
    outer loop
      vertex 14.375 -5 -40
      vertex 15 -4.375 -40
      vertex 14.9694 -4.56814 -40
    endloop
  endfacet
  facet normal -0 0 -1
    outer loop
      vertex 15 -4.375 -40
      vertex 14.375 -5 -40
      vertex 15 4.375 -40
    endloop
  endfacet
  facet normal 0 0 -1
    outer loop
      vertex 14.375 -5 -40
      vertex 14.9694 -4.56814 -40
      vertex 14.8806 -4.74236 -40
    endloop
  endfacet
  facet normal 0 0 -1
    outer loop
      vertex 14.375 5 -40
      vertex 15 4.375 -40
      vertex 14.375 -5 -40
    endloop
  endfacet
  facet normal 0 0 -1
    outer loop
      vertex 14.375 -5 -40
      vertex 14.8806 -4.74236 -40
      vertex 14.7424 -4.88064 -40
    endloop
  endfacet
  facet normal 0 0 -1
    outer loop
      vertex 15 4.375 -40
      vertex 14.375 5 -40
      vertex 14.9694 4.56814 -40
    endloop
  endfacet
  facet normal 0 0 -1
    outer loop
      vertex 14.375 -5 -40
      vertex 14.7424 -4.88064 -40
      vertex 14.5681 -4.96941 -40
    endloop
  endfacet
  facet normal 0 0 -1
    outer loop
      vertex 14.9694 4.56814 -40
      vertex 14.375 5 -40
      vertex 14.8806 4.74236 -40
    endloop
  endfacet
  facet normal 0 0 -1
    outer loop
      vertex 14.8806 4.74236 -40
      vertex 14.375 5 -40
      vertex 14.7424 4.88064 -40
    endloop
  endfacet
  facet normal 0 0 -1
    outer loop
      vertex 14.7424 4.88064 -40
      vertex 14.375 5 -40
      vertex 14.5681 4.96941 -40
    endloop
  endfacet
  facet normal 0 0 -1
    outer loop
      vertex -14.375 -5 -40
      vertex 14.375 5 -40
      vertex 14.375 -5 -40
    endloop
  endfacet
  facet normal 0 0 -1
    outer loop
      vertex -14.375 -5 -40
      vertex -14.375 5 -40
      vertex 14.375 5 -40
    endloop
  endfacet
  facet normal 0 0 -1
    outer loop
      vertex -15 -4.375 -40
      vertex -14.375 -5 -40
      vertex -14.5681 -4.96941 -40
    endloop
  endfacet
  facet normal 0 0 -1
    outer loop
      vertex -14.375 -5 -40
      vertex -15 -4.375 -40
      vertex -14.375 5 -40
    endloop
  endfacet
  facet normal 0 0 -1
    outer loop
      vertex -15 -4.375 -40
      vertex -14.5681 -4.96941 -40
      vertex -14.7424 -4.88064 -40
    endloop
  endfacet
  facet normal 0 0 -1
    outer loop
      vertex -15 4.375 -40
      vertex -14.375 5 -40
      vertex -15 -4.375 -40
    endloop
  endfacet
  facet normal 0 0 -1
    outer loop
      vertex -15 -4.375 -40
      vertex -14.7424 -4.88064 -40
      vertex -14.8806 -4.74236 -40
    endloop
  endfacet
  facet normal 0 0 -1
    outer loop
      vertex -14.375 5 -40
      vertex -15 4.375 -40
      vertex -14.5681 4.96941 -40
    endloop
  endfacet
  facet normal 0 0 -1
    outer loop
      vertex -15 -4.375 -40
      vertex -14.8806 -4.74236 -40
      vertex -14.9694 -4.56814 -40
    endloop
  endfacet
  facet normal 0 0 -1
    outer loop
      vertex -14.5681 4.96941 -40
      vertex -15 4.375 -40
      vertex -14.7424 4.88064 -40
    endloop
  endfacet
  facet normal 0 0 -1
    outer loop
      vertex -14.7424 4.88064 -40
      vertex -15 4.375 -40
      vertex -14.8806 4.74236 -40
    endloop
  endfacet
  facet normal 0 0 -1
    outer loop
      vertex -14.8806 4.74236 -40
      vertex -15 4.375 -40
      vertex -14.9694 4.56814 -40
    endloop
  endfacet
  facet normal -0.987681 0.156483 0
    outer loop
      vertex -15 4.375 -40
      vertex -14.9694 4.56814 30
      vertex -14.9694 4.56814 -40
    endloop
  endfacet
  facet normal -0.987681 0.156483 0
    outer loop
      vertex -14.9694 4.56814 30
      vertex -15 4.375 -40
      vertex -15 4.375 30
    endloop
  endfacet
  facet normal -1 0 0
    outer loop
      vertex -15 -4.375 -40
      vertex -15 4.375 30
      vertex -15 4.375 -40
    endloop
  endfacet
  facet normal -1 -0 0
    outer loop
      vertex -15 4.375 30
      vertex -15 -4.375 -40
      vertex -15 -4.375 30
    endloop
  endfacet
  facet normal 0.156464 -0.987684 0
    outer loop
      vertex 14.375 -5 -40
      vertex 14.5681 -4.96941 30
      vertex 14.375 -5 30
    endloop
  endfacet
  facet normal 0.156464 -0.987684 0
    outer loop
      vertex 14.5681 -4.96941 30
      vertex 14.375 -5 -40
      vertex 14.5681 -4.96941 -40
    endloop
  endfacet
  facet normal 0.890943 -0.454114 0
    outer loop
      vertex 14.8806 -4.74236 30
      vertex 14.9694 -4.56814 -40
      vertex 14.9694 -4.56814 30
    endloop
  endfacet
  facet normal 0.890943 -0.454114 0
    outer loop
      vertex 14.9694 -4.56814 -40
      vertex 14.8806 -4.74236 30
      vertex 14.8806 -4.74236 -40
    endloop
  endfacet
  facet normal 0.453827 -0.89109 0
    outer loop
      vertex 14.5681 -4.96941 -40
      vertex 14.7424 -4.88064 30
      vertex 14.5681 -4.96941 30
    endloop
  endfacet
  facet normal 0.453827 -0.89109 0
    outer loop
      vertex 14.7424 -4.88064 30
      vertex 14.5681 -4.96941 -40
      vertex 14.7424 -4.88064 -40
    endloop
  endfacet
  facet normal 0.156464 0.987684 -0
    outer loop
      vertex 14.5681 4.96941 -40
      vertex 14.375 5 30
      vertex 14.5681 4.96941 30
    endloop
  endfacet
  facet normal 0.156464 0.987684 0
    outer loop
      vertex 14.375 5 30
      vertex 14.5681 4.96941 -40
      vertex 14.375 5 -40
    endloop
  endfacet
  facet normal -0.156464 -0.987684 0
    outer loop
      vertex -14.5681 -4.96941 -40
      vertex -14.375 -5 30
      vertex -14.5681 -4.96941 30
    endloop
  endfacet
  facet normal -0.156464 -0.987684 -0
    outer loop
      vertex -14.375 -5 30
      vertex -14.5681 -4.96941 -40
      vertex -14.375 -5 -40
    endloop
  endfacet
  facet normal 0.890943 0.454114 0
    outer loop
      vertex 14.9694 4.56814 30
      vertex 14.8806 4.74236 -40
      vertex 14.8806 4.74236 30
    endloop
  endfacet
  facet normal 0.890943 0.454114 0
    outer loop
      vertex 14.8806 4.74236 -40
      vertex 14.9694 4.56814 30
      vertex 14.9694 4.56814 -40
    endloop
  endfacet
  facet normal -0.156464 0.987684 0
    outer loop
      vertex -14.375 5 -40
      vertex -14.5681 4.96941 30
      vertex -14.375 5 30
    endloop
  endfacet
  facet normal -0.156464 0.987684 0
    outer loop
      vertex -14.5681 4.96941 30
      vertex -14.375 5 -40
      vertex -14.5681 4.96941 -40
    endloop
  endfacet
  facet normal -0.453827 -0.89109 0
    outer loop
      vertex -14.7424 -4.88064 -40
      vertex -14.5681 -4.96941 30
      vertex -14.7424 -4.88064 30
    endloop
  endfacet
  facet normal -0.453827 -0.89109 -0
    outer loop
      vertex -14.5681 -4.96941 30
      vertex -14.7424 -4.88064 -40
      vertex -14.5681 -4.96941 -40
    endloop
  endfacet
  facet normal 0 0 1
    outer loop
      vertex 14.375 5 30
      vertex 15 4.375 30
      vertex 14.9694 4.56814 30
    endloop
  endfacet
  facet normal 0 0 1
    outer loop
      vertex 15 4.375 30
      vertex 14.375 5 30
      vertex 15 -4.375 30
    endloop
  endfacet
  facet normal 0 0 1
    outer loop
      vertex 14.375 5 30
      vertex 14.9694 4.56814 30
      vertex 14.8806 4.74236 30
    endloop
  endfacet
  facet normal 0 0 1
    outer loop
      vertex 14.375 -5 30
      vertex 15 -4.375 30
      vertex 14.375 5 30
    endloop
  endfacet
  facet normal 0 0 1
    outer loop
      vertex 14.375 5 30
      vertex 14.8806 4.74236 30
      vertex 14.7424 4.88064 30
    endloop
  endfacet
  facet normal 0 0 1
    outer loop
      vertex 15 -4.375 30
      vertex 14.375 -5 30
      vertex 14.9694 -4.56814 30
    endloop
  endfacet
  facet normal 0 0 1
    outer loop
      vertex 14.375 5 30
      vertex 14.7424 4.88064 30
      vertex 14.5681 4.96941 30
    endloop
  endfacet
  facet normal 0 0 1
    outer loop
      vertex 14.9694 -4.56814 30
      vertex 14.375 -5 30
      vertex 14.8806 -4.74236 30
    endloop
  endfacet
  facet normal 0 0 1
    outer loop
      vertex 14.8806 -4.74236 30
      vertex 14.375 -5 30
      vertex 14.7424 -4.88064 30
    endloop
  endfacet
  facet normal 0 0 1
    outer loop
      vertex 14.7424 -4.88064 30
      vertex 14.375 -5 30
      vertex 14.5681 -4.96941 30
    endloop
  endfacet
  facet normal -0 0 1
    outer loop
      vertex 2.5 5 30
      vertex 14.375 -5 30
      vertex 14.375 5 30
    endloop
  endfacet
  facet normal 0 0 1
    outer loop
      vertex 14.375 -5 30
      vertex 2.5 5 30
      vertex 2.5 -5 30
    endloop
  endfacet
  facet normal -0 0 1
    outer loop
      vertex -14.375 5 30
      vertex -2.5 -5 30
      vertex -2.5 5 30
    endloop
  endfacet
  facet normal 0 0 1
    outer loop
      vertex -14.375 5 30
      vertex -14.375 -5 30
      vertex -2.5 -5 30
    endloop
  endfacet
  facet normal 0 0 1
    outer loop
      vertex -15 4.375 30
      vertex -14.375 5 30
      vertex -14.5681 4.96941 30
    endloop
  endfacet
  facet normal 0 0 1
    outer loop
      vertex -14.375 5 30
      vertex -15 4.375 30
      vertex -14.375 -5 30
    endloop
  endfacet
  facet normal 0 0 1
    outer loop
      vertex -15 4.375 30
      vertex -14.5681 4.96941 30
      vertex -14.7424 4.88064 30
    endloop
  endfacet
  facet normal -0 0 1
    outer loop
      vertex -15 -4.375 30
      vertex -14.375 -5 30
      vertex -15 4.375 30
    endloop
  endfacet
  facet normal 0 0 1
    outer loop
      vertex -15 4.375 30
      vertex -14.7424 4.88064 30
      vertex -14.8806 4.74236 30
    endloop
  endfacet
  facet normal 0 0 1
    outer loop
      vertex -14.375 -5 30
      vertex -15 -4.375 30
      vertex -14.5681 -4.96941 30
    endloop
  endfacet
  facet normal 0 0 1
    outer loop
      vertex -15 4.375 30
      vertex -14.8806 4.74236 30
      vertex -14.9694 4.56814 30
    endloop
  endfacet
  facet normal 0 0 1
    outer loop
      vertex -14.5681 -4.96941 30
      vertex -15 -4.375 30
      vertex -14.7424 -4.88064 30
    endloop
  endfacet
  facet normal 0 0 1
    outer loop
      vertex -14.7424 -4.88064 30
      vertex -15 -4.375 30
      vertex -14.8806 -4.74236 30
    endloop
  endfacet
  facet normal 0 0 1
    outer loop
      vertex -14.8806 -4.74236 30
      vertex -15 -4.375 30
      vertex -14.9694 -4.56814 30
    endloop
  endfacet
  facet normal 0.707311 0.706902 0
    outer loop
      vertex 14.8806 4.74236 30
      vertex 14.7424 4.88064 -40
      vertex 14.7424 4.88064 30
    endloop
  endfacet
  facet normal 0.707311 0.706902 0
    outer loop
      vertex 14.7424 4.88064 -40
      vertex 14.8806 4.74236 30
      vertex 14.8806 4.74236 -40
    endloop
  endfacet
  facet normal -0.707311 0.706902 0
    outer loop
      vertex -14.8806 4.74236 -40
      vertex -14.7424 4.88064 30
      vertex -14.7424 4.88064 -40
    endloop
  endfacet
  facet normal -0.707311 0.706902 0
    outer loop
      vertex -14.7424 4.88064 30
      vertex -14.8806 4.74236 -40
      vertex -14.8806 4.74236 30
    endloop
  endfacet
  facet normal 0.987681 -0.156483 0
    outer loop
      vertex 14.9694 -4.56814 30
      vertex 15 -4.375 -40
      vertex 15 -4.375 30
    endloop
  endfacet
  facet normal 0.987681 -0.156483 0
    outer loop
      vertex 15 -4.375 -40
      vertex 14.9694 -4.56814 30
      vertex 14.9694 -4.56814 -40
    endloop
  endfacet
  facet normal 1 0 0
    outer loop
      vertex 2.5 8 35
      vertex 2.5 5 30
      vertex 2.5 8 25
    endloop
  endfacet
  facet normal 1 -0 0
    outer loop
      vertex 2.5 -5 35
      vertex 2.5 5 30
      vertex 2.5 8 35
    endloop
  endfacet
  facet normal 1 0 0
    outer loop
      vertex 2.5 5 30
      vertex 2.5 -5 35
      vertex 2.5 -5 30
    endloop
  endfacet
  facet normal 1 0 0
    outer loop
      vertex 2.5 8 25
      vertex 2.5 5 30
      vertex 2.5 5 25
    endloop
  endfacet
  facet normal -0 0 1
    outer loop
      vertex -2.5 8 35
      vertex 2.5 -5 35
      vertex 2.5 8 35
    endloop
  endfacet
  facet normal 0 0 1
    outer loop
      vertex 2.5 -5 35
      vertex -2.5 8 35
      vertex -2.5 -5 35
    endloop
  endfacet
  facet normal 0 0 -1
    outer loop
      vertex -2.5 5 25
      vertex 2.5 8 25
      vertex 2.5 5 25
    endloop
  endfacet
  facet normal -0 0 -1
    outer loop
      vertex 2.5 8 25
      vertex -2.5 5 25
      vertex -2.5 8 25
    endloop
  endfacet
  facet normal -1 0 0
    outer loop
      vertex -2.5 5 30
      vertex -2.5 8 25
      vertex -2.5 5 25
    endloop
  endfacet
  facet normal -1 0 0
    outer loop
      vertex -2.5 8 25
      vertex -2.5 5 30
      vertex -2.5 8 35
    endloop
  endfacet
  facet normal -1 0 0
    outer loop
      vertex -2.5 -5 35
      vertex -2.5 5 30
      vertex -2.5 -5 30
    endloop
  endfacet
  facet normal -1 0 0
    outer loop
      vertex -2.5 5 30
      vertex -2.5 -5 35
      vertex -2.5 8 35
    endloop
  endfacet
  facet normal 0 1 -0
    outer loop
      vertex 2.5 8 25
      vertex -2.5 8 35
      vertex 2.5 8 35
    endloop
  endfacet
  facet normal 0 1 0
    outer loop
      vertex -2.5 8 35
      vertex 2.5 8 25
      vertex -2.5 8 25
    endloop
  endfacet
  facet normal -1 0 0
    outer loop
      vertex 10 -5 -22.5
      vertex 10 5 -12.5
      vertex 10 5 -22.5
    endloop
  endfacet
  facet normal -1 -0 0
    outer loop
      vertex 10 5 -12.5
      vertex 10 -5 -22.5
      vertex 10 -5 -12.5
    endloop
  endfacet
  facet normal 0 0 -1
    outer loop
      vertex -10 -5 -12.5
      vertex 10 5 -12.5
      vertex 10 -5 -12.5
    endloop
  endfacet
  facet normal -0 0 -1
    outer loop
      vertex 10 5 -12.5
      vertex -10 -5 -12.5
      vertex -10 5 -12.5
    endloop
  endfacet
  facet normal -0 0 1
    outer loop
      vertex -10 5 -22.5
      vertex 10 -5 -22.5
      vertex 10 5 -22.5
    endloop
  endfacet
  facet normal 0 0 1
    outer loop
      vertex 10 -5 -22.5
      vertex -10 5 -22.5
      vertex -10 -5 -22.5
    endloop
  endfacet
  facet normal 1 -0 0
    outer loop
      vertex -10 -5 -12.5
      vertex -10 5 -22.5
      vertex -10 5 -12.5
    endloop
  endfacet
  facet normal 1 0 0
    outer loop
      vertex -10 5 -22.5
      vertex -10 -5 -12.5
      vertex -10 -5 -22.5
    endloop
  endfacet
endsolid OpenSCAD_Model
