solid OpenSCAD_Model
  facet normal 0 0 -1
    outer loop
      vertex -37.1329 -32.3176 -3.75
      vertex -34.4084 -36.0676 -3.75
      vertex -36.0676 -34.4084 -3.75
    endloop
  endfacet
  facet normal 0 0 -1
    outer loop
      vertex -37.5 -30 -3.75
      vertex -32.3176 -37.1329 -3.75
      vertex -37.1329 -32.3176 -3.75
    endloop
  endfacet
  facet normal 0 0 -1
    outer loop
      vertex -32.3176 -37.1329 -3.75
      vertex -34.4084 -36.0676 -3.75
      vertex -37.1329 -32.3176 -3.75
    endloop
  endfacet
  facet normal 0 0 -1
    outer loop
      vertex -37.5 -30 -3.75
      vertex -30 -37.5 -3.75
      vertex -32.3176 -37.1329 -3.75
    endloop
  endfacet
  facet normal 0 0 -1
    outer loop
      vertex -37.5 -30 -3.75
      vertex -37.5 30 -3.75
      vertex -30 -37.5 -3.75
    endloop
  endfacet
  facet normal 0 0 -1
    outer loop
      vertex -30 -37.5 -3.75
      vertex -30 37.5 -3.75
      vertex 30 -37.5 -3.75
    endloop
  endfacet
  facet normal 0 0 -1
    outer loop
      vertex 36.0676 -34.4084 -3.75
      vertex 34.4084 -36.0676 -3.75
      vertex 32.3176 -37.1329 -3.75
    endloop
  endfacet
  facet normal 0 0 -1
    outer loop
      vertex 37.1329 -32.3176 -3.75
      vertex 36.0676 -34.4084 -3.75
      vertex 32.3176 -37.1329 -3.75
    endloop
  endfacet
  facet normal 0 0 -1
    outer loop
      vertex 30 -37.5 -3.75
      vertex 37.1329 -32.3176 -3.75
      vertex 32.3176 -37.1329 -3.75
    endloop
  endfacet
  facet normal 0 0 -1
    outer loop
      vertex 30 -37.5 -3.75
      vertex 37.5 -30 -3.75
      vertex 37.1329 -32.3176 -3.75
    endloop
  endfacet
  facet normal 0 0 -1
    outer loop
      vertex 30 -37.5 -3.75
      vertex 30 37.5 -3.75
      vertex 37.5 -30 -3.75
    endloop
  endfacet
  facet normal 0 0 -1
    outer loop
      vertex 37.5 -30 -3.75
      vertex 30 37.5 -3.75
      vertex 37.5 30 -3.75
    endloop
  endfacet
  facet normal -0 -0 -1
    outer loop
      vertex 34.4084 36.0676 -3.75
      vertex 36.0676 34.4084 -3.75
      vertex 32.3176 37.1329 -3.75
    endloop
  endfacet
  facet normal 0 0 -1
    outer loop
      vertex 32.3176 37.1329 -3.75
      vertex 36.0676 34.4084 -3.75
      vertex 37.1329 32.3176 -3.75
    endloop
  endfacet
  facet normal 0 0 -1
    outer loop
      vertex 30 37.5 -3.75
      vertex 32.3176 37.1329 -3.75
      vertex 37.1329 32.3176 -3.75
    endloop
  endfacet
  facet normal 0 0 -1
    outer loop
      vertex 37.5 30 -3.75
      vertex 30 37.5 -3.75
      vertex 37.1329 32.3176 -3.75
    endloop
  endfacet
  facet normal 0 0 -1
    outer loop
      vertex 30 -37.5 -3.75
      vertex -30 37.5 -3.75
      vertex 30 37.5 -3.75
    endloop
  endfacet
  facet normal 0 0 -1
    outer loop
      vertex -30 -37.5 -3.75
      vertex -37.5 30 -3.75
      vertex -30 37.5 -3.75
    endloop
  endfacet
  facet normal 0 0 -1
    outer loop
      vertex -30 37.5 -3.75
      vertex -37.5 30 -3.75
      vertex -32.3176 37.1329 -3.75
    endloop
  endfacet
  facet normal 0 0 -1
    outer loop
      vertex -32.3176 37.1329 -3.75
      vertex -37.1329 32.3176 -3.75
      vertex -34.4084 36.0676 -3.75
    endloop
  endfacet
  facet normal 0 0 -1
    outer loop
      vertex -34.4084 36.0676 -3.75
      vertex -37.1329 32.3176 -3.75
      vertex -36.0676 34.4084 -3.75
    endloop
  endfacet
  facet normal 0 0 -1
    outer loop
      vertex -32.3176 37.1329 -3.75
      vertex -37.5 30 -3.75
      vertex -37.1329 32.3176 -3.75
    endloop
  endfacet
  facet normal -0 -0 1
    outer loop
      vertex -36.0676 -34.4084 3.75
      vertex -34.4084 -36.0676 3.75
      vertex -37.1329 -32.3176 3.75
    endloop
  endfacet
  facet normal -0 -0 1
    outer loop
      vertex -37.1329 -32.3176 3.75
      vertex -32.3176 -37.1329 3.75
      vertex -37.5 -30 3.75
    endloop
  endfacet
  facet normal 0 0 1
    outer loop
      vertex -37.1329 -32.3176 3.75
      vertex -34.4084 -36.0676 3.75
      vertex -32.3176 -37.1329 3.75
    endloop
  endfacet
  facet normal -0 -0 1
    outer loop
      vertex -32.3176 -37.1329 3.75
      vertex -30 -37.5 3.75
      vertex -37.5 -30 3.75
    endloop
  endfacet
  facet normal 0 0 1
    outer loop
      vertex -30 -37.5 3.75
      vertex -37.5 30 3.75
      vertex -37.5 -30 3.75
    endloop
  endfacet
  facet normal 0 0 1
    outer loop
      vertex 30 -37.5 3.75
      vertex -30 37.5 3.75
      vertex -30 -37.5 3.75
    endloop
  endfacet
  facet normal 0 0 1
    outer loop
      vertex 32.3176 -37.1329 3.75
      vertex 34.4084 -36.0676 3.75
      vertex 36.0676 -34.4084 3.75
    endloop
  endfacet
  facet normal 0 0 1
    outer loop
      vertex 32.3176 -37.1329 3.75
      vertex 36.0676 -34.4084 3.75
      vertex 37.1329 -32.3176 3.75
    endloop
  endfacet
  facet normal 0 -0 1
    outer loop
      vertex 32.3176 -37.1329 3.75
      vertex 37.1329 -32.3176 3.75
      vertex 30 -37.5 3.75
    endloop
  endfacet
  facet normal 0 -0 1
    outer loop
      vertex 37.1329 -32.3176 3.75
      vertex 37.5 -30 3.75
      vertex 30 -37.5 3.75
    endloop
  endfacet
  facet normal 0 0 1
    outer loop
      vertex 37.5 -30 3.75
      vertex 30 37.5 3.75
      vertex 30 -37.5 3.75
    endloop
  endfacet
  facet normal 0 0 1
    outer loop
      vertex 37.5 30 3.75
      vertex 30 37.5 3.75
      vertex 37.5 -30 3.75
    endloop
  endfacet
  facet normal 0 0 1
    outer loop
      vertex 32.3176 37.1329 3.75
      vertex 36.0676 34.4084 3.75
      vertex 34.4084 36.0676 3.75
    endloop
  endfacet
  facet normal 0 0 1
    outer loop
      vertex 37.1329 32.3176 3.75
      vertex 36.0676 34.4084 3.75
      vertex 32.3176 37.1329 3.75
    endloop
  endfacet
  facet normal 0 0 1
    outer loop
      vertex 37.1329 32.3176 3.75
      vertex 32.3176 37.1329 3.75
      vertex 30 37.5 3.75
    endloop
  endfacet
  facet normal 0 0 1
    outer loop
      vertex 37.1329 32.3176 3.75
      vertex 30 37.5 3.75
      vertex 37.5 30 3.75
    endloop
  endfacet
  facet normal 0 0 1
    outer loop
      vertex 30 37.5 3.75
      vertex -30 37.5 3.75
      vertex 30 -37.5 3.75
    endloop
  endfacet
  facet normal 0 0 1
    outer loop
      vertex -30 37.5 3.75
      vertex -37.5 30 3.75
      vertex -30 -37.5 3.75
    endloop
  endfacet
  facet normal -0 0 1
    outer loop
      vertex -32.3176 37.1329 3.75
      vertex -37.5 30 3.75
      vertex -30 37.5 3.75
    endloop
  endfacet
  facet normal -0 0 1
    outer loop
      vertex -34.4084 36.0676 3.75
      vertex -37.1329 32.3176 3.75
      vertex -32.3176 37.1329 3.75
    endloop
  endfacet
  facet normal -0 0 1
    outer loop
      vertex -36.0676 34.4084 3.75
      vertex -37.1329 32.3176 3.75
      vertex -34.4084 36.0676 3.75
    endloop
  endfacet
  facet normal -0 0 1
    outer loop
      vertex -37.1329 32.3176 3.75
      vertex -37.5 30 3.75
      vertex -32.3176 37.1329 3.75
    endloop
  endfacet
  facet normal -0.987686 -0.156446 0
    outer loop
      vertex -37.1329 -32.3176 -3.75
      vertex -37.5 -30 3.75
      vertex -37.5 -30 -3.75
    endloop
  endfacet
  facet normal -0.987686 -0.156446 0
    outer loop
      vertex -37.1329 -32.3176 -3.75
      vertex -37.1329 -32.3176 3.75
      vertex -37.5 -30 3.75
    endloop
  endfacet
  facet normal -0.891009 -0.453985 0
    outer loop
      vertex -36.0676 -34.4084 -3.75
      vertex -37.1329 -32.3176 3.75
      vertex -37.1329 -32.3176 -3.75
    endloop
  endfacet
  facet normal -0.891009 -0.453985 0
    outer loop
      vertex -36.0676 -34.4084 -3.75
      vertex -36.0676 -34.4084 3.75
      vertex -37.1329 -32.3176 3.75
    endloop
  endfacet
  facet normal -0.707107 -0.707107 0
    outer loop
      vertex -34.4084 -36.0676 -3.75
      vertex -36.0676 -34.4084 3.75
      vertex -36.0676 -34.4084 -3.75
    endloop
  endfacet
  facet normal -0.707107 -0.707107 0
    outer loop
      vertex -34.4084 -36.0676 -3.75
      vertex -34.4084 -36.0676 3.75
      vertex -36.0676 -34.4084 3.75
    endloop
  endfacet
  facet normal -0.453985 -0.891009 0
    outer loop
      vertex -32.3176 -37.1329 -3.75
      vertex -34.4084 -36.0676 3.75
      vertex -34.4084 -36.0676 -3.75
    endloop
  endfacet
  facet normal -0.453985 -0.891009 0
    outer loop
      vertex -32.3176 -37.1329 -3.75
      vertex -32.3176 -37.1329 3.75
      vertex -34.4084 -36.0676 3.75
    endloop
  endfacet
  facet normal -0.156446 -0.987686 0
    outer loop
      vertex -30 -37.5 -3.75
      vertex -32.3176 -37.1329 3.75
      vertex -32.3176 -37.1329 -3.75
    endloop
  endfacet
  facet normal -0.156446 -0.987686 0
    outer loop
      vertex -30 -37.5 -3.75
      vertex -30 -37.5 3.75
      vertex -32.3176 -37.1329 3.75
    endloop
  endfacet
  facet normal 0 -1 0
    outer loop
      vertex 30 -37.5 -3.75
      vertex -30 -37.5 3.75
      vertex -30 -37.5 -3.75
    endloop
  endfacet
  facet normal 0 -1 0
    outer loop
      vertex 30 -37.5 -3.75
      vertex 30 -37.5 3.75
      vertex -30 -37.5 3.75
    endloop
  endfacet
  facet normal 0.156446 -0.987686 0
    outer loop
      vertex 32.3176 -37.1329 -3.75
      vertex 30 -37.5 3.75
      vertex 30 -37.5 -3.75
    endloop
  endfacet
  facet normal 0.156446 -0.987686 0
    outer loop
      vertex 32.3176 -37.1329 -3.75
      vertex 32.3176 -37.1329 3.75
      vertex 30 -37.5 3.75
    endloop
  endfacet
  facet normal 0.453985 -0.891009 0
    outer loop
      vertex 34.4084 -36.0676 -3.75
      vertex 32.3176 -37.1329 3.75
      vertex 32.3176 -37.1329 -3.75
    endloop
  endfacet
  facet normal 0.453985 -0.891009 0
    outer loop
      vertex 34.4084 -36.0676 -3.75
      vertex 34.4084 -36.0676 3.75
      vertex 32.3176 -37.1329 3.75
    endloop
  endfacet
  facet normal 0.707107 -0.707107 0
    outer loop
      vertex 36.0676 -34.4084 -3.75
      vertex 34.4084 -36.0676 3.75
      vertex 34.4084 -36.0676 -3.75
    endloop
  endfacet
  facet normal 0.707107 -0.707107 0
    outer loop
      vertex 36.0676 -34.4084 -3.75
      vertex 36.0676 -34.4084 3.75
      vertex 34.4084 -36.0676 3.75
    endloop
  endfacet
  facet normal 0.891009 -0.453985 0
    outer loop
      vertex 37.1329 -32.3176 -3.75
      vertex 36.0676 -34.4084 3.75
      vertex 36.0676 -34.4084 -3.75
    endloop
  endfacet
  facet normal 0.891009 -0.453985 0
    outer loop
      vertex 37.1329 -32.3176 -3.75
      vertex 37.1329 -32.3176 3.75
      vertex 36.0676 -34.4084 3.75
    endloop
  endfacet
  facet normal 0.987686 -0.156446 0
    outer loop
      vertex 37.5 -30 -3.75
      vertex 37.1329 -32.3176 3.75
      vertex 37.1329 -32.3176 -3.75
    endloop
  endfacet
  facet normal 0.987686 -0.156446 0
    outer loop
      vertex 37.5 -30 -3.75
      vertex 37.5 -30 3.75
      vertex 37.1329 -32.3176 3.75
    endloop
  endfacet
  facet normal 1 0 0
    outer loop
      vertex 37.5 30 -3.75
      vertex 37.5 -30 3.75
      vertex 37.5 -30 -3.75
    endloop
  endfacet
  facet normal 1 0 -0
    outer loop
      vertex 37.5 30 -3.75
      vertex 37.5 30 3.75
      vertex 37.5 -30 3.75
    endloop
  endfacet
  facet normal 0.987686 0.156446 0
    outer loop
      vertex 37.1329 32.3176 -3.75
      vertex 37.5 30 3.75
      vertex 37.5 30 -3.75
    endloop
  endfacet
  facet normal 0.987686 0.156446 -0
    outer loop
      vertex 37.1329 32.3176 -3.75
      vertex 37.1329 32.3176 3.75
      vertex 37.5 30 3.75
    endloop
  endfacet
  facet normal 0.891009 0.453985 0
    outer loop
      vertex 36.0676 34.4084 -3.75
      vertex 37.1329 32.3176 3.75
      vertex 37.1329 32.3176 -3.75
    endloop
  endfacet
  facet normal 0.891009 0.453985 -0
    outer loop
      vertex 36.0676 34.4084 -3.75
      vertex 36.0676 34.4084 3.75
      vertex 37.1329 32.3176 3.75
    endloop
  endfacet
  facet normal 0.707107 0.707107 0
    outer loop
      vertex 34.4084 36.0676 -3.75
      vertex 36.0676 34.4084 3.75
      vertex 36.0676 34.4084 -3.75
    endloop
  endfacet
  facet normal 0.707107 0.707107 -0
    outer loop
      vertex 34.4084 36.0676 -3.75
      vertex 34.4084 36.0676 3.75
      vertex 36.0676 34.4084 3.75
    endloop
  endfacet
  facet normal 0.453985 0.891009 0
    outer loop
      vertex 32.3176 37.1329 -3.75
      vertex 34.4084 36.0676 3.75
      vertex 34.4084 36.0676 -3.75
    endloop
  endfacet
  facet normal 0.453985 0.891009 -0
    outer loop
      vertex 32.3176 37.1329 -3.75
      vertex 32.3176 37.1329 3.75
      vertex 34.4084 36.0676 3.75
    endloop
  endfacet
  facet normal 0.156446 0.987686 0
    outer loop
      vertex 30 37.5 -3.75
      vertex 32.3176 37.1329 3.75
      vertex 32.3176 37.1329 -3.75
    endloop
  endfacet
  facet normal 0.156446 0.987686 -0
    outer loop
      vertex 30 37.5 -3.75
      vertex 30 37.5 3.75
      vertex 32.3176 37.1329 3.75
    endloop
  endfacet
  facet normal 0 1 0
    outer loop
      vertex -30 37.5 -3.75
      vertex 30 37.5 3.75
      vertex 30 37.5 -3.75
    endloop
  endfacet
  facet normal 0 1 0
    outer loop
      vertex -30 37.5 -3.75
      vertex -30 37.5 3.75
      vertex 30 37.5 3.75
    endloop
  endfacet
  facet normal -0.156446 0.987686 0
    outer loop
      vertex -32.3176 37.1329 -3.75
      vertex -30 37.5 3.75
      vertex -30 37.5 -3.75
    endloop
  endfacet
  facet normal -0.156446 0.987686 0
    outer loop
      vertex -32.3176 37.1329 -3.75
      vertex -32.3176 37.1329 3.75
      vertex -30 37.5 3.75
    endloop
  endfacet
  facet normal -0.453985 0.891009 0
    outer loop
      vertex -34.4084 36.0676 -3.75
      vertex -32.3176 37.1329 3.75
      vertex -32.3176 37.1329 -3.75
    endloop
  endfacet
  facet normal -0.453985 0.891009 0
    outer loop
      vertex -34.4084 36.0676 -3.75
      vertex -34.4084 36.0676 3.75
      vertex -32.3176 37.1329 3.75
    endloop
  endfacet
  facet normal -0.707107 0.707107 0
    outer loop
      vertex -36.0676 34.4084 -3.75
      vertex -34.4084 36.0676 3.75
      vertex -34.4084 36.0676 -3.75
    endloop
  endfacet
  facet normal -0.707107 0.707107 0
    outer loop
      vertex -36.0676 34.4084 -3.75
      vertex -36.0676 34.4084 3.75
      vertex -34.4084 36.0676 3.75
    endloop
  endfacet
  facet normal -0.891009 0.453985 0
    outer loop
      vertex -37.1329 32.3176 -3.75
      vertex -36.0676 34.4084 3.75
      vertex -36.0676 34.4084 -3.75
    endloop
  endfacet
  facet normal -0.891009 0.453985 0
    outer loop
      vertex -37.1329 32.3176 -3.75
      vertex -37.1329 32.3176 3.75
      vertex -36.0676 34.4084 3.75
    endloop
  endfacet
  facet normal -0.987686 0.156446 0
    outer loop
      vertex -37.5 30 -3.75
      vertex -37.1329 32.3176 3.75
      vertex -37.1329 32.3176 -3.75
    endloop
  endfacet
  facet normal -0.987686 0.156446 0
    outer loop
      vertex -37.5 30 -3.75
      vertex -37.5 30 3.75
      vertex -37.1329 32.3176 3.75
    endloop
  endfacet
  facet normal -1 0 0
    outer loop
      vertex -37.5 -30 -3.75
      vertex -37.5 30 3.75
      vertex -37.5 30 -3.75
    endloop
  endfacet
  facet normal -1 0 0
    outer loop
      vertex -37.5 -30 -3.75
      vertex -37.5 -30 3.75
      vertex -37.5 30 3.75
    endloop
  endfacet
endsolid OpenSCAD_Model
